<?xml version="1.0" encoding="UTF-8" standalone="no"?>
<!-- Created with Inkscape (http://www.inkscape.org/) -->

<svg
   xmlns:dc="http://purl.org/dc/elements/1.1/"
   xmlns:cc="http://creativecommons.org/ns#"
   xmlns:rdf="http://www.w3.org/1999/02/22-rdf-syntax-ns#"
   xmlns:svg="http://www.w3.org/2000/svg"
   xmlns="http://www.w3.org/2000/svg"
   xmlns:xlink="http://www.w3.org/1999/xlink"
   xmlns:sodipodi="http://sodipodi.sourceforge.net/DTD/sodipodi-0.dtd"
   xmlns:inkscape="http://www.inkscape.org/namespaces/inkscape"
   width="800"
   height="400"
   id="svg4341"
   version="1.1"
   inkscape:version="0.48.2 r9819"
   sodipodi:docname="bedroom.svg"
   inkscape:export-filename="C:\Users\Jake\Documents\FlashDevelop\Cold\lib\art\backgrounds\bedroom.png"
   inkscape:export-xdpi="90"
   inkscape:export-ydpi="90">
  <defs
     id="defs4343">
    <linearGradient
       inkscape:collect="always"
       xlink:href="#linearGradient5033"
       id="linearGradient4916"
       gradientUnits="userSpaceOnUse"
       gradientTransform="matrix(1.6701548,0,0,1.614244,-569.02347,-1046.3231)"
       x1="555"
       y1="98.5"
       x2="726"
       y2="196" />
    <linearGradient
       inkscape:collect="always"
       id="linearGradient5033">
      <stop
         style="stop-color:#161717;stop-opacity:1"
         offset="0"
         id="stop5035" />
      <stop
         style="stop-color:#454545;stop-opacity:1"
         offset="1"
         id="stop5037" />
    </linearGradient>
    <linearGradient
       inkscape:collect="always"
       xlink:href="#linearGradient6002"
       id="linearGradient6008"
       x1="783.87842"
       y1="78.771492"
       x2="784.88855"
       y2="185.84766"
       gradientUnits="userSpaceOnUse"
       gradientTransform="matrix(1.9509804,0,0,1,-1813.6522,-171.48289)" />
    <linearGradient
       inkscape:collect="always"
       id="linearGradient6002">
      <stop
         style="stop-color:#000000;stop-opacity:0.30530973"
         offset="0"
         id="stop6004" />
      <stop
         style="stop-color:#000000;stop-opacity:0"
         offset="1"
         id="stop6006" />
    </linearGradient>
    <filter
       color-interpolation-filters="sRGB"
       inkscape:collect="always"
       id="filter6042">
      <feGaussianBlur
         inkscape:collect="always"
         stdDeviation="3.8792173"
         id="feGaussianBlur6044" />
    </filter>
    <linearGradient
       inkscape:collect="always"
       xlink:href="#linearGradient6002"
       id="linearGradient6012"
       gradientUnits="userSpaceOnUse"
       gradientTransform="matrix(1.9509804,0,0,1,-1611.5093,-33.625747)"
       x1="783.87842"
       y1="78.771492"
       x2="784.88855"
       y2="185.84766" />
    <filter
       color-interpolation-filters="sRGB"
       inkscape:collect="always"
       id="filter6046">
      <feGaussianBlur
         inkscape:collect="always"
         stdDeviation="3.8792173"
         id="feGaussianBlur6048" />
    </filter>
    <linearGradient
       y2="185.84766"
       x2="784.88855"
       y1="78.771492"
       x1="783.87842"
       gradientTransform="matrix(1.9509804,0,0,1,-1514.3664,176.37425)"
       gradientUnits="userSpaceOnUse"
       id="linearGradient3530"
       xlink:href="#linearGradient6002"
       inkscape:collect="always" />
    <filter
       color-interpolation-filters="sRGB"
       inkscape:collect="always"
       id="filter6050">
      <feGaussianBlur
         inkscape:collect="always"
         stdDeviation="3.8792173"
         id="feGaussianBlur6052" />
    </filter>
    <linearGradient
       inkscape:collect="always"
       xlink:href="#linearGradient4403"
       id="linearGradient4409"
       x1="1366.2083"
       y1="-3.3345222"
       x2="1366.2083"
       y2="302.42075"
       gradientUnits="userSpaceOnUse" />
    <linearGradient
       inkscape:collect="always"
       id="linearGradient4403">
      <stop
         style="stop-color:#191919;stop-opacity:1"
         offset="0"
         id="stop4405" />
      <stop
         style="stop-color:#333333;stop-opacity:1"
         offset="1"
         id="stop4407" />
    </linearGradient>
    <linearGradient
       gradientTransform="matrix(1.5123719,0,0,1.5134717,-2288.8231,585.35385)"
       y2="302.42075"
       x2="1366.2083"
       y1="-3.3345222"
       x1="1366.2083"
       gradientUnits="userSpaceOnUse"
       id="linearGradient4608"
       xlink:href="#linearGradient4403"
       inkscape:collect="always" />
    <filter
       inkscape:collect="always"
       id="filter5219">
      <feGaussianBlur
         inkscape:collect="always"
         stdDeviation="2.5170249"
         id="feGaussianBlur5221" />
    </filter>
    <filter
       inkscape:collect="always"
       id="filter5266"
       x="-0.028199787"
       width="1.0563996"
       y="-0.14022627"
       height="1.2804525">
      <feGaussianBlur
         inkscape:collect="always"
         stdDeviation="4.924614"
         id="feGaussianBlur5268" />
    </filter>
  </defs>
  <sodipodi:namedview
     id="base"
     pagecolor="#ffffff"
     bordercolor="#666666"
     borderopacity="1.0"
     inkscape:pageopacity="0.0"
     inkscape:pageshadow="2"
     inkscape:zoom="0.70710678"
     inkscape:cx="355.31845"
     inkscape:cy="169.769"
     inkscape:document-units="px"
     inkscape:current-layer="layer1"
     showgrid="false"
     inkscape:window-width="1440"
     inkscape:window-height="838"
     inkscape:window-x="-8"
     inkscape:window-y="-8"
     inkscape:window-maximized="1" />
  <metadata
     id="metadata4346">
    <rdf:RDF>
      <cc:Work
         rdf:about="">
        <dc:format>image/svg+xml</dc:format>
        <dc:type
           rdf:resource="http://purl.org/dc/dcmitype/StillImage" />
        <dc:title></dc:title>
      </cc:Work>
    </rdf:RDF>
  </metadata>
  <g
     inkscape:label="Layer 1"
     inkscape:groupmode="layer"
     id="layer1"
     transform="translate(0,-652.36218)">
    <path
       inkscape:connector-curvature="0"
       style="fill:url(#linearGradient4608);fill-opacity:1;stroke:none"
       d="m -6.46175,1060.2735 817.93538,0 0,-420.38543 -817.93538,0 z m 354.03381,-332.79519 287.9178,0 0,169.50883 -287.9178,0 z"
       id="rect3782"
       sodipodi:nodetypes="cccccccccc" />
    <path
       style="fill:#3c1700;fill-opacity:1;stroke:none"
       d="m 89.882665,863.3318 -59.440443,1.23872 -16.449886,32.67221 -78.650721,11.51667 -5.50875,-45.16634 -7.77642,0.1847 -79.569795,22.25011 5.90046,200.76143 218.701306,-66.2384 25.039444,-155.15984 z"
       id="path5264"
       inkscape:connector-curvature="0"
       sodipodi:nodetypes="ccccccccccc" />
    <path
       sodipodi:nodetypes="cccccccc"
       inkscape:connector-curvature="0"
       id="path4705"
       d="m -37.857139,1007.1022 103.571425,-13.57143 255.714284,7.14283 28.57145,18.5714 -1.42857,58.5715 -414.285733,-22.8571 -3.404958,-32.738 z"
       style="opacity:0.27433627999999999;fill:#000000;fill-opacity:1;stroke:none;filter:url(#filter5266)"
       transform="matrix(1.3873717,0,0,1.3873717,-6.3704073,-411.91744)" />
    <path
       sodipodi:nodetypes="ccccccccc"
       inkscape:connector-curvature="0"
       id="path4701"
       d="m 92.013271,865.5615 -57.953972,0 -16.449887,33.41545 -73.943567,12.5572 -13.28517,-47.75639 -83.038225,22.25011 5.90046,200.76143 222.169737,-66.2384 z"
       style="fill:#2b1100;fill-opacity:1;stroke:none" />
    <g
       transform="matrix(0.47305745,0,0,-0.47144008,506.69052,866.47602)"
       id="g6054">
      <path
         transform="matrix(0.70710678,-0.70710678,0.70710678,0.70710678,0,0)"
         style="opacity:0.6504425;fill:url(#linearGradient6008);fill-opacity:1;stroke:none;filter:url(#filter6042)"
         d="m -389.63033,-91.920293 430.489339,-0.79111 0,114.14724 -510.062239,0 z"
         id="rect5492"
         inkscape:connector-curvature="0"
         sodipodi:nodetypes="ccccc" />
      <path
         transform="matrix(0.70710678,-0.70710678,0.70710678,0.70710678,0,0)"
         style="opacity:0.6504425;fill:url(#linearGradient6012);fill-opacity:1;stroke:none;filter:url(#filter6046)"
         d="m -360.05923,45.145741 547.95913,0 55.10196,114.147239 -574.06673,-0.75761 -28.23675,-27.72693 z"
         id="rect6010"
         inkscape:connector-curvature="0"
         sodipodi:nodetypes="cccccc" />
      <path
         transform="matrix(0.70710678,-0.70710678,0.70710678,0.70710678,0,0)"
         style="opacity:0.6504425;fill:url(#linearGradient3530);fill-opacity:1;stroke:none;filter:url(#filter6050)"
         d="M -226.74016,255.04914 176.2042,253.97274 61.812513,368.1793 -111.74864,368.77456 z"
         id="rect6014"
         inkscape:connector-curvature="0"
         sodipodi:nodetypes="ccccc" />
    </g>
    <rect
       style="opacity:0.4424779;fill:url(#linearGradient4916);fill-opacity:1;stroke:none"
       id="rect5031"
       width="258.87402"
       height="159.81012"
       x="368.76828"
       y="-889.74164"
       transform="scale(1,-1)" />
    <path
       style="fill:#1a1a1a;fill-opacity:1;stroke:#161616;stroke-width:1.99999952;stroke-linejoin:miter;stroke-miterlimit:4;stroke-opacity:1"
       d="m 449.49322,885.84706 0,-72.77903 -75.66503,0 0,-9.10363 75.66503,0 0,-73.77942 9.15227,0 0,73.77942 86.8714,0 0,-73.77942 9.15242,0 0,73.77942 67.96645,0 0,9.10363 -67.96645,0 0,72.77903 -9.15242,0 0,-72.77903 -86.8714,0 0,72.77903 z"
       id="rect5041"
       inkscape:connector-curvature="0"
       sodipodi:nodetypes="ccccccccccccccccccccc" />
    <path
       style="fill:#161616;fill-opacity:1;stroke:#161616;stroke-width:1.99999952;stroke-linejoin:miter;stroke-miterlimit:4;stroke-opacity:1"
       d="m 453.85732,886.34184 0,-77.27013 -80.90086,0 0,-1.2509 80.90086,0 0,-84.21802 1.29625,0 0,84.21802 94.72303,0 0,-84.21802 1.29641,0 0,84.21802 71.45836,0 0,1.2509 -71.45836,0 0,77.27013 -1.29641,0 0,-77.27013 -94.72303,0 0,77.27013 z"
       id="path3346"
       inkscape:connector-curvature="0"
       sodipodi:nodetypes="ccccccccccccccccccccc" />
    <path
       sodipodi:nodetypes="ccccc"
       inkscape:connector-curvature="0"
       id="path5338"
       d="m 650.47353,891.2492 -28.30691,0 0,-162.26469 28.30691,0 z"
       style="fill:#1a1a1a;fill-opacity:1;stroke:#161616;stroke-width:1.99999952;stroke-linejoin:miter;stroke-miterlimit:4;stroke-opacity:1" />
    <path
       style="fill:#1a1a1a;fill-opacity:1;stroke:#161616;stroke-width:1.99999952;stroke-linejoin:miter;stroke-miterlimit:4;stroke-opacity:1"
       d="m 373.69768,891.2492 -28.30707,0 0,-162.26469 28.30707,0 z"
       id="path5336"
       inkscape:connector-curvature="0"
       sodipodi:nodetypes="ccccc" />
    <path
       style="fill:#1a1a1a;fill-opacity:1;stroke:#161616;stroke-width:1.99999952;stroke-linejoin:miter;stroke-miterlimit:4;stroke-opacity:1"
       d="m 339.56586,913.10791 0,-28.31126 316.67828,0 0,28.31126 z"
       id="path5334"
       inkscape:connector-curvature="0"
       sodipodi:nodetypes="ccccc" />
    <path
       sodipodi:nodetypes="ccccc"
       inkscape:connector-curvature="0"
       id="path5332"
       d="m 339.56586,731.43549 0,-28.31131 316.67828,0 0,28.31131 z"
       style="fill:#1a1a1a;fill-opacity:1;stroke:#161616;stroke-width:1.99999952;stroke-linejoin:miter;stroke-miterlimit:4;stroke-opacity:1" />
    <path
       style="fill:#cccccc;fill-opacity:1;stroke:none"
       d="m -58.892335,991.61426 143.692071,-18.82864 354.770764,9.90984 39.63922,25.76544 -1.98195,81.2604 -574.768315,-31.7113 -4.723945,-45.4197 z"
       id="rect4693"
       inkscape:connector-curvature="0"
       sodipodi:nodetypes="cccccccc" />
    <path
       sodipodi:nodetypes="ccccc"
       inkscape:connector-curvature="0"
       id="path4699"
       d="m 351.39903,1081.2417 -0.68425,18.4303 -470.72506,-25.0136 -0.34478,-17.6761 z"
       style="fill:#2b1100;fill-opacity:1;stroke:none" />
    <path
       sodipodi:nodetypes="ccccc"
       inkscape:connector-curvature="0"
       id="path4703"
       d="m 369.88428,1083.7989 -467.424825,-25.7889 -4.723945,-45.4197 470.81027,21.6208 z"
       style="fill:#999999;fill-opacity:1;stroke:none" />
    <path
       sodipodi:nodetypes="ccccccccccccc"
       inkscape:connector-curvature="0"
       id="path5241"
       d="m 547.76708,904.40791 -35.78364,0 -19.17761,9.8102 -9.44261,23.60525 -49.65786,12.5572 -8.38007,-30.23817 -15.57373,-10.05946 -7.45605,-2.60225 -64.91354,17.3936 5.90047,174.79772 177.07344,-37.5 34.76226,-154.96465 z"
       style="fill:#3c1700;fill-opacity:1;stroke:none" />
    <path
       style="fill:#2b1100;fill-opacity:1;stroke:none"
       d="m 555.19942,907.18265 -35.78364,0 -19.17761,9.81021 -9.4426,23.60524 -49.65786,12.5572 -8.38008,-30.23817 -23.02977,-12.66171 -64.91354,17.3936 0.9104,26.54217 4.99006,145.48081 177.07344,-37.5 z"
       id="rect4696"
       inkscape:connector-curvature="0"
       sodipodi:nodetypes="cccccccccccc" />
  </g>
</svg>
