<?xml version="1.0" encoding="UTF-8" standalone="no"?>
<!-- Created with Inkscape (http://www.inkscape.org/) -->

<svg
   xmlns:dc="http://purl.org/dc/elements/1.1/"
   xmlns:cc="http://creativecommons.org/ns#"
   xmlns:rdf="http://www.w3.org/1999/02/22-rdf-syntax-ns#"
   xmlns:svg="http://www.w3.org/2000/svg"
   xmlns="http://www.w3.org/2000/svg"
   xmlns:xlink="http://www.w3.org/1999/xlink"
   xmlns:sodipodi="http://sodipodi.sourceforge.net/DTD/sodipodi-0.dtd"
   xmlns:inkscape="http://www.inkscape.org/namespaces/inkscape"
   width="800"
   height="400"
   id="svg3851"
   version="1.1"
   inkscape:version="0.48.2 r9819"
   sodipodi:docname="cellar.svg"
   inkscape:export-filename="C:\Users\Jake\Documents\FlashDevelop\Cold\lib\art\backgrounds\cellar.png"
   inkscape:export-xdpi="90"
   inkscape:export-ydpi="90">
  <defs
     id="defs3853">
    <linearGradient
       inkscape:collect="always"
       id="linearGradient4681">
      <stop
         style="stop-color:#5f5f5f;stop-opacity:1"
         offset="0"
         id="stop4683" />
      <stop
         style="stop-color:#3b3b3b;stop-opacity:1"
         offset="1"
         id="stop4685" />
    </linearGradient>
    <radialGradient
       inkscape:collect="always"
       xlink:href="#linearGradient4681"
       id="radialGradient4687"
       cx="148.89615"
       cy="101.25251"
       fx="148.89615"
       fy="101.25251"
       r="15.058824"
       gradientTransform="matrix(0.27561651,-0.83371055,1.3276532,0.45360307,-27.864067,174.9539)"
       gradientUnits="userSpaceOnUse" />
    <radialGradient
       inkscape:collect="always"
       xlink:href="#linearGradient4681"
       id="radialGradient4699"
       gradientUnits="userSpaceOnUse"
       gradientTransform="matrix(0.27561651,-0.83371055,1.3276532,0.45360307,-27.864067,174.9539)"
       cx="148.89615"
       cy="101.25251"
       fx="148.89615"
       fy="101.25251"
       r="15.058824" />
    <filter
       inkscape:collect="always"
       id="filter4703"
       x="-0.018157211"
       width="1.0363144"
       y="-0.26216786"
       height="1.5243357">
      <feGaussianBlur
         inkscape:collect="always"
         stdDeviation="0.23141546"
         id="feGaussianBlur4705" />
    </filter>
    <filter
       inkscape:collect="always"
       id="filter4733"
       x="-0.028606318"
       width="1.0572126"
       y="-0.13097096"
       height="1.2619419">
      <feGaussianBlur
         inkscape:collect="always"
         stdDeviation="0.58684455"
         id="feGaussianBlur4735" />
    </filter>
    <filter
       inkscape:collect="always"
       id="filter3834"
       x="-0.033125579"
       width="1.0662512"
       y="-0.21457693"
       height="1.4291539"
       color-interpolation-filters="sRGB">
      <feGaussianBlur
         inkscape:collect="always"
         stdDeviation="0.53799871"
         id="feGaussianBlur3836" />
    </filter>
    <filter
       inkscape:collect="always"
       id="filter3840"
       x="-0.041225273"
       width="1.0824505"
       y="-0.13008162"
       height="1.2601633"
       color-interpolation-filters="sRGB">
      <feGaussianBlur
         inkscape:collect="always"
         stdDeviation="0.94558862"
         id="feGaussianBlur3842" />
    </filter>
    <filter
       inkscape:collect="always"
       id="filter4836">
      <feGaussianBlur
         inkscape:collect="always"
         stdDeviation="6.6104844"
         id="feGaussianBlur4838" />
    </filter>
  </defs>
  <sodipodi:namedview
     id="base"
     pagecolor="#ffffff"
     bordercolor="#666666"
     borderopacity="1.0"
     inkscape:pageopacity="0.0"
     inkscape:pageshadow="2"
     inkscape:zoom="0.53125"
     inkscape:cx="371.52435"
     inkscape:cy="246.31399"
     inkscape:document-units="px"
     inkscape:current-layer="layer1"
     showgrid="false"
     inkscape:window-width="1440"
     inkscape:window-height="838"
     inkscape:window-x="-8"
     inkscape:window-y="-8"
     inkscape:window-maximized="1"
     showguides="true"
     inkscape:guide-bbox="true" />
  <metadata
     id="metadata3856">
    <rdf:RDF>
      <cc:Work
         rdf:about="">
        <dc:format>image/svg+xml</dc:format>
        <dc:type
           rdf:resource="http://purl.org/dc/dcmitype/StillImage" />
        <dc:title></dc:title>
      </cc:Work>
    </rdf:RDF>
  </metadata>
  <g
     inkscape:label="Layer 1"
     inkscape:groupmode="layer"
     id="layer1"
     transform="translate(0,-652.36218)">
    <path
       transform="translate(0,652.36218)"
       style="fill:#151111;fill-opacity:1;stroke:none"
       d="m 110.74558,288.75672 580.36312,0 112,111.24327 -804.3631177,0 z"
       id="rect3859"
       inkscape:connector-curvature="0"
       sodipodi:nodetypes="ccccc" />
    <path
       sodipodi:nodetypes="ccccc"
       inkscape:connector-curvature="0"
       id="path4370"
       d="M 112,290.01114 77.819513,-0.04011919 1.7740482,1.3664776 -4.5843547e-7,399.99999 z"
       style="fill:#241c1c;fill-opacity:1;stroke:none"
       transform="translate(0,652.36218)" />
    <path
       sodipodi:nodetypes="ccccc"
       inkscape:connector-curvature="0"
       id="path4372"
       d="m 741.72716,1.7338946 -51.87288,288.2772454 112,109.98885 0.78701,-397.9356184 z"
       style="fill:#241c1c;fill-opacity:1;stroke:none"
       transform="translate(0,652.36218)" />
    <path
       sodipodi:nodetypes="ccccc"
       inkscape:connector-curvature="0"
       id="path4374"
       d="m 110.74558,943.62774 580.36312,0 55.55123,-306.47766 -673.903733,-13.79859 z"
       style="fill:#1f1717;fill-opacity:1;stroke:none" />
    <path
       style="fill:#3e3028;fill-opacity:1;stroke:#3d3d3d;stroke-width:0.49999997;stroke-linejoin:miter;stroke-miterlimit:4;stroke-opacity:1;stroke-dashoffset:0"
       d="m 517.68695,691.07692 c 148.60571,3.99883 70.00759,1.39709 218.6133,5.39593 12.40676,5.606 24.81356,11.21201 37.22033,16.81804 -171.6887,-4.61998 -91.8086,-2.63939 -263.4973,-7.25937 7.43318,-14.41138 0.12913,-0.23915 7.66367,-14.9546 z"
       id="path5963"
       inkscape:connector-curvature="0"
       sodipodi:nodetypes="ccccc" />
    <path
       style="fill:#442f22;fill-opacity:1;stroke:#3d3d3d;stroke-width:0.49999997;stroke-linejoin:miter;stroke-miterlimit:4;stroke-opacity:1;stroke-dashoffset:0"
       d="m 511.20309,718.17568 c 170.6851,4.59298 89.8014,2.58537 260.48647,7.17835 8.6398,-17.6868 -11.58379,-11.2252 -22.30622,-12.71265 -163.64295,-4.40348 -75.7171,-2.20638 -239.36006,-6.60986 0.39327,4.04804 0.78656,8.09611 1.17981,12.14416 z"
       id="path5965"
       inkscape:connector-curvature="0"
       sodipodi:nodetypes="ccccc" />
    <path
       sodipodi:nodetypes="ccccc"
       inkscape:connector-curvature="0"
       id="path4649"
       d="m 517.68695,788.55154 c 148.60571,3.99884 52.52215,1.39709 201.12785,5.39593 12.40677,5.60601 24.81357,11.21202 37.22033,16.81804 -171.6887,-4.61998 -74.32315,-2.63938 -246.01185,-7.25936 3.98745,-8.43113 1.64931,-3.58405 7.66367,-14.95461 z"
       style="fill:#3e3028;fill-opacity:1;stroke:#3d3d3d;stroke-width:0.49999997;stroke-linejoin:miter;stroke-miterlimit:4;stroke-opacity:1;stroke-dashoffset:0" />
    <path
       sodipodi:nodetypes="ccccc"
       inkscape:connector-curvature="0"
       id="path4651"
       d="m 511.20309,815.6503 c 170.6851,4.59298 72.31596,2.58537 243.00103,7.17835 8.63979,-17.68679 -11.58379,-11.2252 -22.30623,-12.71265 -163.64295,-4.40348 -58.23165,-2.20638 -221.87461,-6.60985 0.39327,4.04803 0.78656,8.09611 1.17981,12.14415 z"
       style="fill:#442f22;fill-opacity:1;stroke:#3d3d3d;stroke-width:0.49999997;stroke-linejoin:miter;stroke-miterlimit:4;stroke-opacity:1;stroke-dashoffset:0" />
    <path
       style="fill:#3e3028;fill-opacity:1;stroke:#3d3d3d;stroke-width:0.49999997;stroke-linejoin:miter;stroke-miterlimit:4;stroke-opacity:1;stroke-dashoffset:0"
       d="m 517.68695,886.02617 c 148.60571,3.99883 35.32334,1.39709 183.92904,5.39592 12.40677,5.60601 24.81357,11.21202 37.22034,16.81804 -171.6887,-4.61998 -57.12435,-2.63938 -228.81305,-7.25936 7.43318,-14.91818 0.33183,-0.44188 7.66367,-14.9546 z"
       id="path4653"
       inkscape:connector-curvature="0"
       sodipodi:nodetypes="ccccc" />
    <path
       style="fill:#442f22;fill-opacity:1;stroke:#3d3d3d;stroke-width:0.49999997;stroke-linejoin:miter;stroke-miterlimit:4;stroke-opacity:1;stroke-dashoffset:0"
       d="m 511.20309,913.12493 c 170.6851,4.59298 55.11715,2.58537 225.80222,7.17835 8.63979,-17.6868 -11.58379,-11.22521 -22.30623,-12.71266 -163.64295,-4.40347 -41.03284,-2.20637 -204.6758,-6.60985 0.39327,4.04804 0.78656,8.09611 1.17981,12.14416 z"
       id="path4655"
       inkscape:connector-curvature="0"
       sodipodi:nodetypes="ccccc" />
    <path
       sodipodi:nodetypes="ccccc"
       inkscape:connector-curvature="0"
       id="path4657"
       d="m 277.3267,686.37716 c -150.26962,4.04366 -54.66173,-1.05143 -204.931361,2.99223 -12.545681,5.66886 -25.0914,11.33771 -37.637082,17.00657 173.611083,-4.67177 76.706853,-0.20478 250.317933,-4.87655 -4.34647,-8.44713 -2.23992,-4.46226 -7.74949,-15.12225 z"
       style="fill:#3e3028;fill-opacity:1;stroke:#3d3d3d;stroke-width:0.5;stroke-linejoin:miter;stroke-miterlimit:4;stroke-opacity:1;stroke-dashoffset:0" />
    <path
       sodipodi:nodetypes="ccccc"
       inkscape:connector-curvature="0"
       id="path4659"
       d="m 283.88316,713.7797 c -172.59623,4.64447 -74.67717,0.15017 -247.273386,4.79464 -8.736532,-17.88507 11.713491,-11.35104 22.555988,-12.85517 165.475238,-4.45284 60.435168,0.23308 225.910428,-4.21976 -0.39768,4.09341 -0.79537,8.18686 -1.19303,12.28029 z"
       style="fill:#442f22;fill-opacity:1;stroke:#3d3d3d;stroke-width:0.5;stroke-linejoin:miter;stroke-miterlimit:4;stroke-opacity:1;stroke-dashoffset:0" />
    <path
       style="fill:#3e3028;fill-opacity:1;stroke:#3d3d3d;stroke-width:0.5;stroke-linejoin:miter;stroke-miterlimit:4;stroke-opacity:1;stroke-dashoffset:0"
       d="m 277.3267,784.94448 c -150.26962,4.04366 -36.9805,-1.05143 -187.25013,2.99223 -12.545682,5.66886 -25.091401,11.33771 -37.637083,17.00657 173.611083,-4.67177 59.025623,-0.20478 232.636703,-4.87655 -5.36096,-10.83883 -0.50445,-0.87705 -7.74949,-15.12225 z"
       id="path4661"
       inkscape:connector-curvature="0"
       sodipodi:nodetypes="ccccc" />
    <path
       style="opacity:0.6946903;fill:#000000;fill-opacity:1;stroke:none;filter:url(#filter4733)"
       d="m 628.49615,800.32934 c 13.81461,-10.4467 -20.53919,0.78884 -18.01264,-8.63408 0,0 -32.64918,-6.44165 -31.17363,3.13419 z"
       id="path4731"
       inkscape:connector-curvature="0"
       sodipodi:nodetypes="cccc" />
    <path
       style="fill:#442f22;fill-opacity:1;stroke:#3d3d3d;stroke-width:0.5;stroke-linejoin:miter;stroke-miterlimit:4;stroke-opacity:1;stroke-dashoffset:0"
       d="m 283.88316,812.34702 c -172.59623,4.64447 -56.99594,0.15017 -229.592156,4.79464 -8.736532,-17.88507 11.713492,-11.35104 22.555988,-12.85517 165.475238,-4.45284 42.753938,0.23308 208.229198,-4.21976 -0.39768,4.09341 -0.79537,8.18686 -1.19303,12.28029 z"
       id="path4663"
       inkscape:connector-curvature="0"
       sodipodi:nodetypes="ccccc" />
    <path
       sodipodi:nodetypes="ccccc"
       inkscape:connector-curvature="0"
       id="path4665"
       d="m 277.3267,883.5118 c -150.26962,4.04366 -19.58912,-1.05143 -169.85875,2.99223 -12.545683,5.66886 -25.091402,11.33771 -37.637083,17.00657 173.611083,-4.67177 41.634243,-0.20478 215.245323,-4.87655 -5.14356,-10.33151 -0.93923,-1.96419 -7.74949,-15.12225 z"
       style="fill:#3e3028;fill-opacity:1;stroke:#3d3d3d;stroke-width:0.5;stroke-linejoin:miter;stroke-miterlimit:4;stroke-opacity:1;stroke-dashoffset:0" />
    <path
       sodipodi:nodetypes="ccccc"
       inkscape:connector-curvature="0"
       id="path4667"
       d="m 283.88316,910.91434 c -172.59623,4.64447 -39.60456,0.15017 -212.200776,4.79464 -8.736533,-17.88507 11.713491,-11.35104 22.555988,-12.85517 165.475238,-4.45284 25.362558,0.23308 190.837818,-4.21976 -0.39768,4.09341 -0.79537,8.18686 -1.19303,12.28029 z"
       style="fill:#442f22;fill-opacity:1;stroke:#3d3d3d;stroke-width:0.5;stroke-linejoin:miter;stroke-miterlimit:4;stroke-opacity:1;stroke-dashoffset:0" />
    <path
       sodipodi:type="arc"
       style="fill:url(#radialGradient4699);fill-opacity:1;stroke:#000000;stroke-width:1;stroke-opacity:1"
       id="path4689"
       sodipodi:cx="140.35294"
       sodipodi:cy="98.647057"
       sodipodi:rx="11.45547"
       sodipodi:ry="7.5573092"
       d="m 151.80841,98.647057 a 11.45547,7.5573092 0 1 1 -22.91094,0 11.45547,7.5573092 0 1 1 22.91094,0 z"
       transform="matrix(-0.0718936,-1.2432054,-1.2229033,0.07071948,773.33071,951.37139)" />
    <path
       sodipodi:nodetypes="ccccc"
       inkscape:connector-curvature="0"
       id="path4691"
       d="m 628.49615,799.38814 c -2.10689,-11.24277 0.0772,-21.01564 3.39912,-30.39879 l -49.18628,-5.49989 c -4.33301,10.81631 -4.87466,20.82295 -3.39911,30.39879 z"
       style="fill:#afafaf;fill-opacity:1;stroke:#000000;stroke-width:1;stroke-opacity:1" />
    <path
       sodipodi:nodetypes="ccccc"
       inkscape:connector-curvature="0"
       id="path4693"
       d="m 611.65989,797.50556 c -0.96267,-13.21423 1.17892,-21.86431 3.39913,-30.39879 l -20.65818,-2.30995 c -2.47986,8.0008 -5.0942,15.78868 -3.39912,30.39879 z"
       style="fill:#ab2929;fill-opacity:1;stroke:#000000;stroke-width:1;stroke-opacity:1" />
    <path
       style="fill:#ffffff;fill-opacity:1;stroke:none"
       d="m 603.04423,783.28021 c 0.64214,-7.40282 1.92754,-11.32444 3.07016,-16.6409 l -5.22494,-0.58424 c -1.16728,4.81621 -2.7923,8.49033 -3.07016,16.6409 z"
       id="path4695"
       inkscape:connector-curvature="0"
       sodipodi:nodetypes="ccccc" />
    <path
       transform="matrix(0.11296984,-1.0103052,-0.99380644,-0.11112498,712.44756,936.97301)"
       d="m 155.41176,98.647057 a 15.058824,2.5294118 0 1 1 -30.11765,0 15.058824,2.5294118 0 1 1 30.11765,0 z"
       sodipodi:ry="2.5294118"
       sodipodi:rx="15.058824"
       sodipodi:cy="98.647057"
       sodipodi:cx="140.35294"
       id="path4697"
       style="fill:#2a2a2a;fill-opacity:1;stroke:#000000;stroke-width:1;stroke-opacity:1"
       sodipodi:type="arc" />
    <path
       transform="matrix(-1.1318997,0.51916421,0.510686,1.1134153,676.04566,554.70321)"
       d="m 151.80841,98.647057 a 11.45547,7.5573092 0 1 1 -22.91094,0 11.45547,7.5573092 0 1 1 22.91094,0 z"
       sodipodi:ry="7.5573092"
       sodipodi:rx="11.45547"
       sodipodi:cy="98.647057"
       sodipodi:cx="140.35294"
       id="path4679"
       style="fill:url(#radialGradient4687);fill-opacity:1;stroke:#000000;stroke-opacity:1"
       sodipodi:type="arc" />
    <path
       sodipodi:nodetypes="ccc"
       inkscape:connector-curvature="0"
       id="path4701"
       d="m 585.86671,799.8919 c -11.23082,3.10422 -22.52978,2.64818 -31.88235,0.11765 z"
       style="opacity:0.47596154;fill:#000000;fill-opacity:1;stroke:#000000;stroke-opacity:1;filter:url(#filter4703)" />
    <path
       style="fill:#afafaf;fill-opacity:1;stroke:#000000;stroke-opacity:1"
       d="m 554.57259,750.06633 c 10.93901,3.34319 20.89407,2.2586 30.58824,0 l 0,49.49281 c -11.23082,3.10422 -21.23567,2.53053 -30.58824,0 z"
       id="rect4669"
       inkscape:connector-curvature="0"
       sodipodi:nodetypes="ccccc" />
    <path
       style="fill:#ab2929;fill-opacity:1;stroke:#000000;stroke-opacity:1"
       d="m 554.57259,767.00751 c 13.0254,2.42514 21.8599,1.25806 30.58824,0 l 0,20.78692 c -8.22682,1.57541 -16.25698,3.30814 -30.58824,0 z"
       id="rect4671"
       inkscape:connector-curvature="0"
       sodipodi:nodetypes="ccccc" />
    <path
       sodipodi:nodetypes="ccccc"
       inkscape:connector-curvature="0"
       id="path4674"
       d="m 567.80788,776.98733 c 7.47453,0.84329 11.41304,-0.49389 16.82354,-1.03864 l 0,5.2575 c -4.9161,0.62485 -7.93413,1.48848 -16.82354,1.03864 z"
       style="fill:#ffffff;fill-opacity:1;stroke:none" />
    <path
       sodipodi:type="arc"
       style="fill:#2a2a2a;fill-opacity:1;stroke:#000000;stroke-opacity:1"
       id="path4677"
       sodipodi:cx="140.35294"
       sodipodi:cy="98.647057"
       sodipodi:rx="15.058824"
       sodipodi:ry="2.5294118"
       d="m 155.41176,98.647057 a 15.058824,2.5294118 0 1 1 -30.11765,0 15.058824,2.5294118 0 1 1 30.11765,0 z"
       transform="matrix(1.0166016,0,0,1,427.16897,651.34576)" />
  </g>
</svg>
