<?xml version="1.0" encoding="UTF-8" standalone="no"?>
<!-- Created with Inkscape (http://www.inkscape.org/) -->

<svg
   xmlns:dc="http://purl.org/dc/elements/1.1/"
   xmlns:cc="http://creativecommons.org/ns#"
   xmlns:rdf="http://www.w3.org/1999/02/22-rdf-syntax-ns#"
   xmlns:svg="http://www.w3.org/2000/svg"
   xmlns="http://www.w3.org/2000/svg"
   xmlns:xlink="http://www.w3.org/1999/xlink"
   xmlns:sodipodi="http://sodipodi.sourceforge.net/DTD/sodipodi-0.dtd"
   xmlns:inkscape="http://www.inkscape.org/namespaces/inkscape"
   width="1200"
   height="400"
   id="svg2"
   version="1.1"
   inkscape:version="0.48.2 r9819"
   sodipodi:docname="frontLawn.svg"
   inkscape:export-filename="C:\Users\Jake\Documents\FlashDevelop\Cold\lib\art\backgrounds\frontLawn.png"
   inkscape:export-xdpi="90"
   inkscape:export-ydpi="90">
  <defs
     id="defs4">
    <linearGradient
       inkscape:collect="always"
       id="linearGradient6869">
      <stop
         style="stop-color:#ac9777;stop-opacity:1;"
         offset="0"
         id="stop6871" />
      <stop
         style="stop-color:#ac9777;stop-opacity:0.27433628"
         offset="1"
         id="stop6873" />
    </linearGradient>
    <linearGradient
       inkscape:collect="always"
       id="linearGradient6842">
      <stop
         style="stop-color:#000000;stop-opacity:0"
         offset="0"
         id="stop6844" />
      <stop
         id="stop6850"
         offset="0.44433546"
         style="stop-color:#000000;stop-opacity:1" />
      <stop
         style="stop-color:#000000;stop-opacity:0;"
         offset="1"
         id="stop6846" />
    </linearGradient>
    <linearGradient
       inkscape:collect="always"
       id="linearGradient6830">
      <stop
         style="stop-color:#818181;stop-opacity:1;"
         offset="0"
         id="stop6832" />
      <stop
         style="stop-color:#333333;stop-opacity:1"
         offset="1"
         id="stop6834" />
    </linearGradient>
    <linearGradient
       inkscape:collect="always"
       id="linearGradient6811">
      <stop
         style="stop-color:#252420;stop-opacity:1;"
         offset="0"
         id="stop6813" />
      <stop
         id="stop6819"
         offset="0.50224137"
         style="stop-color:#32312b;stop-opacity:1" />
      <stop
         style="stop-color:#252420;stop-opacity:1"
         offset="1"
         id="stop6815" />
    </linearGradient>
    <linearGradient
       inkscape:collect="always"
       id="linearGradient5033">
      <stop
         style="stop-color:#161717;stop-opacity:1"
         offset="0"
         id="stop5035" />
      <stop
         style="stop-color:#454545;stop-opacity:1"
         offset="1"
         id="stop5037" />
    </linearGradient>
    <linearGradient
       inkscape:collect="always"
       xlink:href="#linearGradient5033"
       id="linearGradient5039"
       x1="555"
       y1="98.5"
       x2="726"
       y2="196"
       gradientUnits="userSpaceOnUse" />
    <filter
       inkscape:collect="always"
       id="filter5269"
       x="-2.5452"
       width="6.0904"
       y="-0.011237086"
       height="1.0224742">
      <feGaussianBlur
         inkscape:collect="always"
         stdDeviation="1.0605"
         id="feGaussianBlur5271" />
    </filter>
    <filter
       inkscape:collect="always"
       id="filter5273"
       x="-2.5452"
       width="6.0904"
       y="-0.019065169"
       height="1.0381303">
      <feGaussianBlur
         inkscape:collect="always"
         stdDeviation="1.0605"
         id="feGaussianBlur5275" />
    </filter>
    <filter
       inkscape:collect="always"
       id="filter5277"
       x="-2.5452"
       width="6.0904"
       y="-0.019065169"
       height="1.0381303">
      <feGaussianBlur
         inkscape:collect="always"
         stdDeviation="1.0605"
         id="feGaussianBlur5279" />
    </filter>
    <filter
       inkscape:collect="always"
       id="filter5281"
       x="-2.5452"
       width="6.0904"
       y="-0.010605"
       height="1.02121">
      <feGaussianBlur
         inkscape:collect="always"
         stdDeviation="1.0605"
         id="feGaussianBlur5283" />
    </filter>
    <filter
       inkscape:collect="always"
       id="filter5318"
       x="-0.43774174"
       width="1.8754835"
       y="-0.10187444"
       height="1.2037489">
      <feGaussianBlur
         inkscape:collect="always"
         stdDeviation="1.4591391"
         id="feGaussianBlur5320" />
    </filter>
    <linearGradient
       inkscape:collect="always"
       xlink:href="#linearGradient6811"
       id="linearGradient6817"
       x1="892.56873"
       y1="311.76471"
       x2="989.17218"
       y2="297.79935"
       gradientUnits="userSpaceOnUse"
       gradientTransform="translate(53.033009,656.60482)" />
    <linearGradient
       inkscape:collect="always"
       xlink:href="#linearGradient6830"
       id="linearGradient6836"
       x1="987.5"
       y1="927.48718"
       x2="1006.7375"
       y2="894.16681"
       gradientUnits="userSpaceOnUse"
       gradientTransform="translate(0,6.4965436)" />
    <linearGradient
       inkscape:collect="always"
       xlink:href="#linearGradient6842"
       id="linearGradient6860"
       gradientUnits="userSpaceOnUse"
       x1="986.0907"
       y1="278.70908"
       x2="1009.9833"
       y2="278.39972"
       gradientTransform="matrix(1.6282108,0,0,0.57142966,-628.45706,777.8357)" />
    <linearGradient
       inkscape:collect="always"
       xlink:href="#linearGradient6869"
       id="linearGradient6875"
       x1="977.56128"
       y1="175.10947"
       x2="977.56128"
       y2="170.37715"
       gradientUnits="userSpaceOnUse"
       gradientTransform="matrix(0.70710678,0.70710678,-0.70710678,0.70710678,396.80722,63.806391)" />
    <linearGradient
       inkscape:collect="always"
       xlink:href="#linearGradient6869-7"
       id="linearGradient6875-3"
       x1="977.56128"
       y1="175.10947"
       x2="977.56128"
       y2="170.37715"
       gradientUnits="userSpaceOnUse"
       gradientTransform="matrix(0.70710678,0.70710678,-0.70710678,0.70710678,-1346.6629,-162.29585)" />
    <linearGradient
       inkscape:collect="always"
       id="linearGradient6869-7">
      <stop
         style="stop-color:#ac9777;stop-opacity:1;"
         offset="0"
         id="stop6871-1" />
      <stop
         style="stop-color:#ac9777;stop-opacity:0.27433628"
         offset="1"
         id="stop6873-0" />
    </linearGradient>
    <linearGradient
       inkscape:collect="always"
       xlink:href="#linearGradient6830-3"
       id="linearGradient6836-7"
       x1="987.5"
       y1="927.48718"
       x2="1006.7375"
       y2="894.16681"
       gradientUnits="userSpaceOnUse"
       gradientTransform="translate(-906.21331,-809.94291)" />
    <linearGradient
       inkscape:collect="always"
       id="linearGradient6830-3">
      <stop
         style="stop-color:#818181;stop-opacity:1;"
         offset="0"
         id="stop6832-4" />
      <stop
         style="stop-color:#333333;stop-opacity:1"
         offset="1"
         id="stop6834-9" />
    </linearGradient>
    <linearGradient
       inkscape:collect="always"
       xlink:href="#linearGradient6830-3"
       id="linearGradient7001"
       gradientUnits="userSpaceOnUse"
       gradientTransform="translate(-1743.4701,-219.6057)"
       x1="987.5"
       y1="927.48718"
       x2="1006.7375"
       y2="894.16681" />
  </defs>
  <sodipodi:namedview
     id="base"
     pagecolor="#ffffff"
     bordercolor="#666666"
     borderopacity="1.0"
     inkscape:pageopacity="0.0"
     inkscape:pageshadow="2"
     inkscape:zoom="0.5"
     inkscape:cx="548.95344"
     inkscape:cy="216.5516"
     inkscape:document-units="px"
     inkscape:current-layer="layer1"
     showgrid="false"
     inkscape:window-width="1440"
     inkscape:window-height="838"
     inkscape:window-x="-8"
     inkscape:window-y="-8"
     inkscape:window-maximized="1" />
  <metadata
     id="metadata7">
    <rdf:RDF>
      <cc:Work
         rdf:about="">
        <dc:format>image/svg+xml</dc:format>
        <dc:type
           rdf:resource="http://purl.org/dc/dcmitype/StillImage" />
        <dc:title></dc:title>
      </cc:Work>
    </rdf:RDF>
  </metadata>
  <g
     inkscape:label="Layer 1"
     inkscape:groupmode="layer"
     id="layer1"
     transform="translate(0,-652.36218)">
    <rect
       style="fill:#a8c9ca;fill-opacity:1;stroke:none;stroke-width:2;stroke-linejoin:miter;stroke-miterlimit:4;stroke-opacity:1;stroke-dasharray:none"
       id="rect2987"
       width="1201.4286"
       height="400"
       x="0"
       y="1.4285712"
       transform="translate(0,652.36218)" />
    <rect
       style="opacity:0.66371681;fill:#fffeff;fill-opacity:1;stroke:none"
       id="rect3780"
       width="1248.5714"
       height="330.97311"
       x="-5.5721512"
       y="643.79077" />
    <rect
       style="fill:#fffeff;fill-opacity:1;stroke:none"
       id="rect3757"
       width="1292.8571"
       height="239.99995"
       x="-27.088369"
       y="852.36218" />
    <path
       sodipodi:nodetypes="ccccccc"
       inkscape:connector-curvature="0"
       id="path6821"
       d="m 1103.0768,995.56156 -19.796,-16.7717 -70.9623,-11.48604 -36.04527,19.92349 -14.1927,15.05649 c 32.03,11.9791 122.81977,3.4243 143.95127,-0.904 z"
       style="fill:#fffeff;fill-opacity:1;stroke:#d6e5fa;stroke-width:0.99999994;stroke-linejoin:miter;stroke-miterlimit:4;stroke-opacity:1;stroke-dasharray:none" />
    <path
       style="fill:#333333;fill-opacity:1;stroke:none"
       d="m -20.44095,678.32545 877.49424,0 0,352.97985 -877.49424,0 z"
       id="rect3782"
       inkscape:connector-curvature="0"
       sodipodi:nodetypes="ccccc" />
    <path
       style="fill:#333333;fill-opacity:1;stroke:none"
       d="m 1061.5016,747.00428 103.1193,2.2055 0,287.66022 -107.5207,-15.4385 z"
       id="rect3787"
       inkscape:connector-curvature="0"
       sodipodi:nodetypes="ccccc" />
    <path
       sodipodi:nodetypes="ccccc"
       inkscape:connector-curvature="0"
       id="path3790"
       d="m 1188.8285,755.82626 -26.095,-8.82198 0,287.66032 30.4965,-17.6441 z"
       style="fill:#232323;fill-opacity:1;stroke:none" />
    <path
       sodipodi:nodetypes="ccccc"
       inkscape:connector-curvature="0"
       id="path5027"
       d="m 1069.3629,787.27852 88.6947,-6.86104 0.03,255.37742 -93.1258,-14.3634 z"
       style="fill:#000000;fill-opacity:1;stroke:none" />
    <path
       style="fill:#333333;fill-opacity:1;stroke:none"
       d="m 27.56717,474.84763 737.60735,4.9089 130.48385,204.16866 -31.01669,12.14717 -885.58857,0 -20.52595,-14.11063 z"
       id="rect3784"
       inkscape:connector-curvature="0"
       sodipodi:nodetypes="ccccccc" />
    <text
       xml:space="preserve"
       style="font-size:8px;font-style:normal;font-variant:normal;font-weight:normal;font-stretch:normal;line-height:125%;letter-spacing:0px;word-spacing:0px;fill:#000000;fill-opacity:1;stroke:none;font-family:Andalus;-inkscape-font-specification:Andalus"
       x="-188.06635"
       y="-553.9574"
       id="text3795"
       sodipodi:linespacing="125%"
       transform="translate(0,652.36218)"><tspan
         sodipodi:role="line"
         id="tspan3797"
         x="-188.06635"
         y="-553.9574" /></text>
    <path
       sodipodi:nodetypes="ccccc"
       inkscape:connector-curvature="0"
       id="path3796"
       d="m 895.65837,683.92519 -31.01669,12.14717 -885.58857,0 -20.52595,-14.11063 z"
       style="fill:#1a1a1a;fill-opacity:1;stroke:none" />
    <rect
       style="fill:#1a1a1a;fill-opacity:1;stroke:#333333;stroke-width:1.99999988;stroke-linejoin:miter;stroke-miterlimit:4;stroke-opacity:1;stroke-dasharray:none"
       id="rect3798"
       width="172.91025"
       height="304.73245"
       x="305.61243"
       y="720.92102" />
    <rect
       y="742.11993"
       x="554.83728"
       height="112.61851"
       width="168.95045"
       id="rect4308"
       style="fill:#1a1a1a;fill-opacity:1;stroke:#333333;stroke-width:1.99999988;stroke-linejoin:miter;stroke-miterlimit:4;stroke-opacity:1;stroke-dasharray:none" />
    <path
       style="fill:#e0fbfb;fill-opacity:1;stroke:#d6e5fa;stroke-width:1.99999988;stroke-linejoin:miter;stroke-miterlimit:4;stroke-opacity:1"
       d="m -37.98339,677.80624 133.41762,0 -100.19201,25.07044 -4.60206,45.25153 -12.0756,-52.70138 -9.30823,145.11071 z"
       id="rect4310"
       inkscape:connector-curvature="0"
       sodipodi:nodetypes="ccccccc" />
    <path
       style="fill:#eafefe;fill-opacity:1;stroke:#d6e5fa;stroke-width:1.99999988000000010;stroke-linejoin:miter;stroke-miterlimit:4;stroke-opacity:1"
       d="m 762.5718,676.84418 56.70977,17.88831 4.89582,-0.51108 9.58761,69.4066 5.81377,-64.70456 8.56768,-4.9065 17.13531,13.79956 14.07546,-13.28847 9.38363,145.04858 7.24171,-162.73244 -133.41076,0 z"
       id="path4313"
       inkscape:connector-curvature="0" />
    <path
       sodipodi:nodetypes="ccccccc"
       inkscape:connector-curvature="0"
       id="path4317"
       d="M 782.19446,491.63414 761.58245,476.49792 32.4669,471.26124 16.82082,482.59835 -42.25011,680.83099 896.12105,678.58421 z"
       style="fill:#fffeff;fill-opacity:1;stroke:#d6e5fa;stroke-width:0.99999994;stroke-linejoin:miter;stroke-miterlimit:4;stroke-opacity:1;stroke-dasharray:none" />
    <path
       style="fill:#fffeff;fill-opacity:1;stroke:#d6e5fa;stroke-width:0.99999994;stroke-linejoin:miter;stroke-miterlimit:4;stroke-opacity:1;stroke-dasharray:none"
       d="M 104.25925,994.78353 -26.69281,1011.7664 -88.5163,1065.21 c 0,0 180.35459,10.6367 276.02179,19.8714 54.50751,5.2618 156.46088,-50.1862 156.46088,-50.1862 -81.80723,-29.9407 -147.0259,-45.04382 -239.70712,-40.11167 z"
       id="path5013"
       inkscape:connector-curvature="0"
       sodipodi:nodetypes="cccscc" />
    <path
       sodipodi:nodetypes="ccccc"
       inkscape:connector-curvature="0"
       id="path5023"
       d="m 1069.4346,782.62164 79.683,-6.08555 -2.448,266.47081 -81.8177,-21.4389 z"
       style="fill:#2a2a2a;fill-opacity:1;stroke:none" />
    <path
       style="fill:#000000;fill-opacity:1;stroke:none"
       d="m 1095.5884,819.225 c 0,13.02314 9.8963,17.09073 8.7508,17.03849 -6.25,-0.28491 -15.6707,-4.01535 -15.6707,-17.03849 0,-13.02315 9.4171,-17.03847 15.6707,-17.03847 0.3657,0 -8.7508,4.01532 -8.7508,17.03847 z"
       id="path5016"
       inkscape:connector-curvature="0"
       sodipodi:nodetypes="sssss" />
    <path
       id="path5019"
       d="m 1161.6257,730.62028 18.9362,25.38836 3.113,9.26278 6.2249,85.80805 2.2758,-36.61513 4.3447,-10.54 1.472,-53.4456 z"
       style="fill:#eafefe;fill-opacity:1;stroke:#d6e5fa;stroke-width:1.99999988000000010;stroke-linejoin:miter;stroke-miterlimit:4;stroke-opacity:1"
       inkscape:connector-curvature="0"
       sodipodi:nodetypes="cccccccc" />
    <path
       style="fill:#fffeff;fill-opacity:1;stroke:#d6e5fa;stroke-width:0.99999994;stroke-linejoin:miter;stroke-miterlimit:4;stroke-opacity:1;stroke-dasharray:none"
       d="m 1194.2936,746.65997 -19.796,-16.7717 -70.9623,-11.48604 -36.0453,19.92349 -14.1927,15.05643 c 32.03,11.97914 122.8198,3.42437 143.9513,-0.90395 z"
       id="path5021"
       inkscape:connector-curvature="0"
       sodipodi:nodetypes="ccccccc" />
    <path
       style="fill:#1a1a1a;fill-opacity:1;stroke:none"
       d="m 1152.6633,778.73733 -3.5457,-2.20124 -2.6519,266.83071 3.2469,-3.3994 z"
       id="path5025"
       inkscape:connector-curvature="0"
       sodipodi:nodetypes="ccccc" />
    <path
       sodipodi:nodetypes="sscccs"
       inkscape:connector-curvature="0"
       id="path5029"
       d="m 631.21487,991.69951 c -89.57433,-6.5615 -91.81332,-3.15635 -130.95204,16.98289 -32.22868,16.5836 -82.06304,69.6116 -82.06304,69.6116 165.07928,25.685 468.34644,19.9851 542.70301,-17.5566 l -68.60596,-65.0943 c -38.5255,-28.54381 -155.99483,3.75426 -261.08197,-3.94359 z"
       style="fill:#fffeff;fill-opacity:1;stroke:#d6e5fa;stroke-width:0.99999994;stroke-linejoin:miter;stroke-miterlimit:4;stroke-opacity:1;stroke-dasharray:none" />
    <rect
       style="fill:url(#linearGradient5039);fill-opacity:1;stroke:none"
       id="rect5031"
       width="155"
       height="99"
       x="561.5"
       y="97"
       transform="translate(0,652.36218)" />
    <path
       style="fill:#1a1a1a;fill-opacity:1;stroke:#161616;stroke-width:1.99999988000000010;stroke-linejoin:miter;stroke-miterlimit:4;stroke-opacity:1"
       d="m 608.5625,97.75 0,45.46875 -46.1875,0 0,5.6875 46.1875,0 0,46.09375 5.71875,0 0,-46.09375 54.28125,0 0,46.09375 5.71875,0 0,-46.09375 42.46875,0 0,-5.6875 -42.46875,0 0,-45.46875 -5.71875,0 0,45.46875 -54.28125,0 0,-45.46875 z"
       transform="translate(0,652.36218)"
       id="rect5041"
       inkscape:connector-curvature="0"
       sodipodi:nodetypes="ccccccccccccccccccccc" />
    <path
       style="fill:#1a1a1a;fill-opacity:1;stroke:#333333;stroke-width:1.99999976;stroke-linejoin:miter;stroke-miterlimit:4;stroke-opacity:1"
       d="m 310.43076,725.888 163.27357,0 0,294.7985 -163.27357,0 z"
       id="rect5050"
       inkscape:connector-curvature="0"
       sodipodi:nodetypes="ccccc"
       inkscape:export-xdpi="90"
       inkscape:export-ydpi="90" />
    <path
       style="font-size:medium;font-style:normal;font-variant:normal;font-weight:normal;font-stretch:normal;text-indent:0;text-align:start;text-decoration:none;line-height:normal;letter-spacing:normal;word-spacing:normal;text-transform:none;direction:ltr;block-progression:tb;writing-mode:lr-tb;text-anchor:start;baseline-shift:baseline;opacity:0.65044248000000005;color:#000000;fill:#333333;fill-opacity:1;fill-rule:nonzero;stroke:none;stroke-width:1px;marker:none;visibility:visible;display:inline;overflow:visible;enable-background:accumulate;font-family:Sans;-inkscape-font-specification:Sans;filter:url(#filter5281)"
       d="m 337,737.36218 0,240 1,0 0,-240 -1,0 z"
       id="path5053"
       inkscape:connector-curvature="0" />
    <path
       style="font-size:medium;font-style:normal;font-variant:normal;font-weight:normal;font-stretch:normal;text-indent:0;text-align:start;text-decoration:none;line-height:normal;letter-spacing:normal;word-spacing:normal;text-transform:none;direction:ltr;block-progression:tb;writing-mode:lr-tb;text-anchor:start;baseline-shift:baseline;opacity:0.65044248000000005;color:#000000;fill:#333333;fill-opacity:1;fill-rule:nonzero;stroke:none;stroke-width:1px;marker:none;visibility:visible;display:inline;overflow:visible;enable-background:accumulate;font-family:Sans;-inkscape-font-specification:Sans;filter:url(#filter5269)"
       d="m 431.5,768.86218 0,226.5 1,0 0,-226.5 -1,0 z"
       id="path5055"
       inkscape:connector-curvature="0" />
    <path
       style="font-size:medium;font-style:normal;font-variant:normal;font-weight:normal;font-stretch:normal;text-indent:0;text-align:start;text-decoration:none;line-height:normal;letter-spacing:normal;word-spacing:normal;text-transform:none;direction:ltr;block-progression:tb;writing-mode:lr-tb;text-anchor:start;baseline-shift:baseline;opacity:0.65044248000000005;color:#000000;fill:#333333;fill-opacity:1;fill-rule:nonzero;stroke:none;stroke-width:1px;marker:none;visibility:visible;display:inline;overflow:visible;enable-background:accumulate;font-family:Sans;-inkscape-font-specification:Sans;filter:url(#filter5273)"
       d="m 389,814.86218 0,133.5 1,0 0,-133.5 -1,0 z"
       id="path5057"
       inkscape:connector-curvature="0" />
    <path
       style="font-size:medium;font-style:normal;font-variant:normal;font-weight:normal;font-stretch:normal;text-indent:0;text-align:start;text-decoration:none;line-height:normal;letter-spacing:normal;word-spacing:normal;text-transform:none;direction:ltr;block-progression:tb;writing-mode:lr-tb;text-anchor:start;baseline-shift:baseline;opacity:0.65044248000000005;color:#000000;fill:#333333;fill-opacity:1;fill-rule:nonzero;stroke:none;stroke-width:1px;marker:none;visibility:visible;display:inline;overflow:visible;enable-background:accumulate;font-family:Sans;-inkscape-font-specification:Sans;filter:url(#filter5277)"
       d="m 358.5,780.875 0,133.5 1,0 0,-133.5 -1,0 z"
       id="path5059"
       inkscape:connector-curvature="0" />
    <path
       sodipodi:nodetypes="ccccccccc"
       inkscape:connector-curvature="0"
       id="path5308"
       d="m 457.875,853.98718 4,0 2,9.71875 0,13.1875 -2,8.34375 -4,0 -2,-8.34375 0,-13.1875 z"
       style="fill:#000000;fill-opacity:1;stroke:none;filter:url(#filter5318)"
       transform="matrix(1.6175476,0,0,1.5873083,-286.24469,-515.29067)" />
    <path
       style="fill:#000000;fill-opacity:1;stroke:#111111;stroke-width:1;stroke-linejoin:miter;stroke-miterlimit:4;stroke-opacity:1"
       d="m 454.59211,839.45659 6.47019,0 3.2351,16.81555 0,20.93263 -3.2351,16.81554 -6.47019,0 -3.23509,-16.81554 0,-20.93263 z"
       id="rect5305"
       inkscape:connector-curvature="0"
       sodipodi:nodetypes="ccccccccc" />
    <path
       sodipodi:nodetypes="ccccc"
       inkscape:connector-curvature="0"
       id="path5324"
       d="m 468.13907,898.33583 0,20.93263 -19.41057,0 0,-20.93263 z"
       style="fill:#000000;fill-opacity:1;stroke:#111111;stroke-width:1;stroke-linejoin:miter;stroke-miterlimit:4;stroke-opacity:1" />
    <path
       style="fill:#666666;fill-opacity:1;stroke:none"
       d="m 458.3869,902.13045 c -1.94218,0 -3.46974,1.49899 -3.46974,3.40484 0,1.11786 0.56685,2.13008 1.40665,2.7607 l -1.40665,7.17777 7.03321,0 -1.40665,-7.17777 c 0.83981,-0.63062 1.40665,-1.64284 1.40665,-2.7607 0,-1.90585 -1.62133,-3.40484 -3.56347,-3.40484 z"
       id="path5326"
       inkscape:connector-curvature="0" />
    <path
       style="fill:#1a1a1a;fill-opacity:1;stroke:#161616;stroke-width:1.99999988;stroke-linejoin:miter;stroke-miterlimit:4;stroke-opacity:1"
       d="m 560.65625,746.73718 -17.6875,0 0,101.375 17.6875,0 z"
       id="path5336"
       inkscape:connector-curvature="0"
       sodipodi:nodetypes="ccccc" />
    <path
       sodipodi:nodetypes="ccccc"
       inkscape:connector-curvature="0"
       id="path5338"
       d="m 735.78125,746.73718 -17.6875,0 0,101.375 17.6875,0 z"
       style="fill:#1a1a1a;fill-opacity:1;stroke:#161616;stroke-width:1.99999988;stroke-linejoin:miter;stroke-miterlimit:4;stroke-opacity:1" />
    <path
       sodipodi:nodetypes="ccccc"
       inkscape:connector-curvature="0"
       id="path5332"
       d="m 539.875,846.58093 0,17.6875 197.875,0 0,-17.6875 z"
       style="fill:#1a1a1a;fill-opacity:1;stroke:#161616;stroke-width:1.99999988;stroke-linejoin:miter;stroke-miterlimit:4;stroke-opacity:1" />
    <path
       style="fill:#1a1a1a;fill-opacity:1;stroke:#161616;stroke-width:1.99999988;stroke-linejoin:miter;stroke-miterlimit:4;stroke-opacity:1"
       d="m 539.875,733.08093 0,17.6875 197.875,0 0,-17.6875 z"
       id="path5334"
       inkscape:connector-curvature="0"
       sodipodi:nodetypes="ccccc" />
    <path
       style="fill:url(#linearGradient6817);fill-opacity:1;stroke:none"
       d="m 995.25176,924.85482 c -23.7706,0 -43.12898,4.47887 -44.125,10.125 l -0.0625,0 0,0.46875 c -3.27262,25.05264 2.42336,54.38997 0,66.00003 l 0.3125,0 c 2.56985,5.2707 21.2236,9.375 43.875,9.375 22.65144,0 41.30514,-4.1043 43.87504,-9.375 1.3335,-18.4837 -4.8454,-39.61218 0.25,-66.46878 -0.9961,-5.64613 -20.3544,-10.125 -44.12504,-10.125 z"
       id="path6802"
       inkscape:connector-curvature="0"
       sodipodi:nodetypes="scccccsccs" />
    <path
       sodipodi:nodetypes="scccccsccs"
       inkscape:connector-curvature="0"
       id="path6809"
       d="m 995.25176,924.85482 c -23.7706,0 -43.12898,4.47887 -44.125,10.125 l -0.0625,0 0,0.46875 0,0 0.3125,0 c 2.56985,5.27071 21.2236,9.375 43.875,9.375 22.65144,0 41.30514,-4.10429 43.87504,-9.375 l 0.25,-0.46875 c -0.9961,-5.64613 -20.3544,-10.125 -44.12504,-10.125 z"
       style="fill:#3b3b31;fill-opacity:1;stroke:none" />
    <path
       style="font-size:medium;font-style:normal;font-variant:normal;font-weight:normal;font-stretch:normal;text-indent:0;text-align:start;text-decoration:none;line-height:normal;letter-spacing:normal;word-spacing:normal;text-transform:none;direction:ltr;block-progression:tb;writing-mode:lr-tb;text-anchor:start;baseline-shift:baseline;color:#000000;fill:url(#linearGradient6860);fill-opacity:1;stroke:none;stroke-width:1px;marker:none;visibility:visible;display:inline;overflow:visible;enable-background:accumulate;font-family:Sans;-inkscape-font-specification:Sans"
       d="m 971.87065,936.62171 0,0.57143 48.79555,0.0178 0,-0.57143 -48.79555,-0.0178 z"
       id="path6840"
       inkscape:connector-curvature="0" />
    <path
       style="fill:#fffeff;fill-opacity:1;stroke:#d6e5fa;stroke-width:0.99999994;stroke-linejoin:miter;stroke-miterlimit:4;stroke-opacity:1;stroke-dasharray:none"
       d="m 986.75774,1006.1682 -19.79601,-16.77174 -22.87904,-11.48604 -36.04527,19.92349 -14.1927,15.05649 c 32.03,11.9791 74.73652,3.4243 95.86802,-0.904 z"
       id="path6823"
       inkscape:connector-curvature="0"
       sodipodi:nodetypes="ccccccc" />
    <path
       sodipodi:nodetypes="cccccscc"
       inkscape:connector-curvature="0"
       id="path7003"
       d="m 1024.6002,924.53219 -15.8895,-8.2663 -17.7023,0.31159 -28.69372,4.10159 -6.66125,9.62062 c 0.98726,-0.40607 5.57065,-2.6468 7.27659,-2.29419 20.3141,4.19883 52.18818,2.19057 63.40768,-0.0853 z"
       style="fill:#fffeff;fill-opacity:1;stroke:#d6e5fa;stroke-width:1;stroke-linejoin:miter;stroke-miterlimit:4;stroke-opacity:1;stroke-dasharray:none" />
  </g>
</svg>
