<?xml version="1.0" encoding="UTF-8" standalone="no"?>
<!-- Created with Inkscape (http://www.inkscape.org/) -->

<svg
   xmlns:dc="http://purl.org/dc/elements/1.1/"
   xmlns:cc="http://creativecommons.org/ns#"
   xmlns:rdf="http://www.w3.org/1999/02/22-rdf-syntax-ns#"
   xmlns:svg="http://www.w3.org/2000/svg"
   xmlns="http://www.w3.org/2000/svg"
   xmlns:sodipodi="http://sodipodi.sourceforge.net/DTD/sodipodi-0.dtd"
   xmlns:inkscape="http://www.inkscape.org/namespaces/inkscape"
   width="1200"
   height="400"
   id="svg2"
   version="1.1"
   inkscape:version="0.48.2 r9819"
   sodipodi:docname="halfway.svg"
   inkscape:export-filename="C:\Users\Jake\Documents\FlashDevelop\Cold\lib\art\backgrounds\halfway.png"
   inkscape:export-xdpi="90"
   inkscape:export-ydpi="90">
  <defs
     id="defs4" />
  <sodipodi:namedview
     id="base"
     pagecolor="#ffffff"
     bordercolor="#666666"
     borderopacity="1.0"
     inkscape:pageopacity="0.0"
     inkscape:pageshadow="2"
     inkscape:zoom="1.1157443"
     inkscape:cx="734.42721"
     inkscape:cy="137.31936"
     inkscape:document-units="px"
     inkscape:current-layer="layer1"
     showgrid="false"
     inkscape:window-width="1440"
     inkscape:window-height="838"
     inkscape:window-x="-8"
     inkscape:window-y="-8"
     inkscape:window-maximized="1" />
  <metadata
     id="metadata7">
    <rdf:RDF>
      <cc:Work
         rdf:about="">
        <dc:format>image/svg+xml</dc:format>
        <dc:type
           rdf:resource="http://purl.org/dc/dcmitype/StillImage" />
        <dc:title></dc:title>
      </cc:Work>
    </rdf:RDF>
  </metadata>
  <g
     inkscape:label="Layer 1"
     inkscape:groupmode="layer"
     id="layer1"
     transform="translate(0,-652.36218)">
    <rect
       style="fill:#a8c9ca;fill-opacity:1;stroke:none;stroke-width:2;stroke-linejoin:miter;stroke-miterlimit:4;stroke-opacity:1;stroke-dasharray:none"
       id="rect2987"
       width="1201.4286"
       height="400"
       x="0"
       y="1.4285712"
       transform="translate(0,652.36218)" />
    <rect
       style="opacity:0.66371681;fill:#fffeff;fill-opacity:1;stroke:none"
       id="rect3780"
       width="1248.5714"
       height="330.97311"
       x="-5.5721512"
       y="643.79077" />
    <rect
       style="fill:#fffeff;fill-opacity:1;stroke:none"
       id="rect3757"
       width="1292.8571"
       height="239.99995"
       x="-27.088369"
       y="852.36218" />
    <path
       style="fill:#333333;fill-opacity:1;stroke:none"
       d="m 412.87822,806.75254 268.8507,0 0,107.91178 -268.8507,0 z"
       id="rect3782"
       inkscape:connector-curvature="0"
       sodipodi:nodetypes="ccccc" />
    <path
       style="fill:#333333;fill-opacity:1;stroke:none"
       d="m 744.36873,827.74879 31.59416,0.67426 0,87.94251 -32.94269,-4.71982 z"
       id="rect3787"
       inkscape:connector-curvature="0"
       sodipodi:nodetypes="ccccc" />
    <path
       sodipodi:nodetypes="ccccc"
       inkscape:connector-curvature="0"
       id="path3790"
       d="m 783.37976,830.44582 -7.99516,-2.69703 0,87.94251 9.34367,-5.39409 z"
       style="fill:#333333;fill-opacity:1;stroke:none" />
    <path
       style="fill:#333333;fill-opacity:1;stroke:none"
       d="m 427.58717,744.546 225.99151,1.50073 39.97824,62.41774 -9.50303,3.71359 -271.33068,0 -6.28883,-4.31385 z"
       id="rect3784"
       inkscape:connector-curvature="0"
       sodipodi:nodetypes="ccccccc" />
    <text
       xml:space="preserve"
       style="font-size:8px;font-style:normal;font-variant:normal;font-weight:normal;font-stretch:normal;line-height:125%;letter-spacing:0px;word-spacing:0px;fill:#000000;fill-opacity:1;stroke:none;font-family:Andalus;-inkscape-font-specification:Andalus"
       x="-188.06635"
       y="-553.9574"
       id="text3795"
       sodipodi:linespacing="125%"
       transform="translate(0,652.36218)"><tspan
         sodipodi:role="line"
         id="tspan3797"
         x="-188.06635"
         y="-553.9574" /></text>
    <path
       sodipodi:nodetypes="ccccc"
       inkscape:connector-curvature="0"
       id="path3796"
       d="m 693.55692,808.46447 -9.50303,3.71359 -271.33068,0 -6.28883,-4.31385 z"
       style="fill:#1a1a1a;fill-opacity:1;stroke:none" />
    <rect
       style="fill:#1a1a1a;fill-opacity:1;stroke:#333333;stroke-width:2;stroke-linejoin:miter;stroke-miterlimit:4;stroke-opacity:1;stroke-dasharray:none"
       id="rect3798"
       width="52.977032"
       height="93.161758"
       x="512.77594"
       y="819.77472" />
    <rect
       y="826.25555"
       x="589.20837"
       height="34.429344"
       width="51.763817"
       id="rect4308"
       style="fill:#1a1a1a;fill-opacity:1;stroke:#333333;stroke-width:2;stroke-linejoin:miter;stroke-miterlimit:4;stroke-opacity:1;stroke-dasharray:none" />
    <path
       style="fill:#e0fbfb;fill-opacity:1;stroke:#d6e5fa;stroke-width:2;stroke-linejoin:miter;stroke-miterlimit:4;stroke-opacity:1"
       d="m 407.50349,806.59379 40.8771,0 -30.69729,7.66445 -1.41,13.83414 -3.69978,-16.11168 -2.85189,44.36275 z"
       id="rect4310"
       inkscape:connector-curvature="0"
       sodipodi:nodetypes="ccccccc" />
    <path
       sodipodi:nodetypes="cccccccc"
       inkscape:connector-curvature="0"
       id="path4313"
       d="m 693.64318,806.3074 -40.8771,0 17.38847,5.44631 8.11366,-0.77324 5.97141,4.7842 4.33353,-4.07036 2.85189,44.36275 z"
       style="fill:#e0fbfb;fill-opacity:1;stroke:#d6e5fa;stroke-width:2;stroke-linejoin:miter;stroke-miterlimit:4;stroke-opacity:1" />
    <path
       style="fill:#e0fbfb;fill-opacity:1;stroke:#d6e5fa;stroke-width:2;stroke-linejoin:miter;stroke-miterlimit:4;stroke-opacity:1"
       d="m 687.93939,806.46583 -16.79447,1.58438 3.44589,24.77579 1.77613,-19.78584 z"
       id="path4315"
       inkscape:connector-curvature="0"
       sodipodi:nodetypes="ccccc" />
    <path
       sodipodi:nodetypes="ccccc"
       inkscape:connector-curvature="0"
       id="path4317"
       d="m 654.98421,745.30863 -228.785,-0.63376 -20.00298,61.53349 287.50245,-0.68688 z"
       style="fill:#e0fbfb;fill-opacity:1;stroke:#d6e5fa;stroke-width:2;stroke-linejoin:miter;stroke-miterlimit:4;stroke-opacity:1" />
    <path
       style="fill:#e2eced;fill-opacity:1;stroke:none;opacity:0.34513274"
       d="M 427.59375 92.1875 L 427.5625 92.3125 L 426.1875 92.3125 L 406.1875 153.84375 L 407 153.84375 L 406.4375 155.5 L 407.59375 156.28125 L 409.71875 203.96875 L 412.5625 159.6875 L 412.59375 159.71875 L 412.875 160.96875 L 412.875 262.3125 L 681.71875 262.3125 L 681.71875 161.375 L 684.25 163.40625 L 688.5625 159.34375 L 691.4375 203.6875 L 693.65625 153.9375 L 692.1875 153.9375 L 691.6875 153.15625 L 693.6875 153.15625 L 654.96875 92.9375 L 460.59375 92.40625 L 427.59375 92.1875 z M 744.375 175.375 L 743.03125 259.28125 L 775.96875 264 L 775.96875 263 L 784.71875 257.9375 L 783.375 178.09375 L 775.375 175.375 L 775.375 176.0625 L 744.375 175.375 z "
       id="path4472"
       transform="translate(0,652.36218)" />
  </g>
</svg>
