<?xml version="1.0" encoding="UTF-8" standalone="no"?>
<!-- Created with Inkscape (http://www.inkscape.org/) -->

<svg
   xmlns:dc="http://purl.org/dc/elements/1.1/"
   xmlns:cc="http://creativecommons.org/ns#"
   xmlns:rdf="http://www.w3.org/1999/02/22-rdf-syntax-ns#"
   xmlns:svg="http://www.w3.org/2000/svg"
   xmlns="http://www.w3.org/2000/svg"
   xmlns:sodipodi="http://sodipodi.sourceforge.net/DTD/sodipodi-0.dtd"
   xmlns:inkscape="http://www.inkscape.org/namespaces/inkscape"
   width="64"
   height="64"
   id="svg2"
   version="1.1"
   inkscape:version="0.48.2 r9819"
   sodipodi:docname="New document 1">
  <defs
     id="defs4" />
  <sodipodi:namedview
     id="base"
     pagecolor="#ffffff"
     bordercolor="#666666"
     borderopacity="1.0"
     inkscape:pageopacity="0.0"
     inkscape:pageshadow="2"
     inkscape:zoom="5.6"
     inkscape:cx="53.733468"
     inkscape:cy="20.196073"
     inkscape:document-units="px"
     inkscape:current-layer="layer1"
     showgrid="false"
     inkscape:window-width="1440"
     inkscape:window-height="838"
     inkscape:window-x="-8"
     inkscape:window-y="-8"
     inkscape:window-maximized="1" />
  <metadata
     id="metadata7">
    <rdf:RDF>
      <cc:Work
         rdf:about="">
        <dc:format>image/svg+xml</dc:format>
        <dc:type
           rdf:resource="http://purl.org/dc/dcmitype/StillImage" />
        <dc:title></dc:title>
      </cc:Work>
    </rdf:RDF>
  </metadata>
  <g
     inkscape:label="Layer 1"
     inkscape:groupmode="layer"
     id="layer1"
     transform="translate(0,-988.36218)">
    <path
       style="fill:#000000;fill-opacity:1;stroke:#ffffff;stroke-width:1.99999988;stroke-linejoin:miter;stroke-miterlimit:4;stroke-opacity:1;stroke-dasharray:none"
       d="m 37.933416,995.48209 -16.294571,12.55581 -18.7546748,0 0,24.1733 18.1179418,0 16.931304,13.0311 z"
       id="rect2985"
       inkscape:connector-curvature="0"
       sodipodi:nodetypes="ccccccc" />
    <path
       style="fill:#000000;fill-opacity:1;stroke:#ffffff;stroke-width:2;stroke-linejoin:miter;stroke-miterlimit:4;stroke-opacity:1"
       d="m 54.423055,1020.1404 c 0,11.3671 -8.629826,20.5818 -12.420424,20.5818 -3.790597,0 7.955025,-9.2147 7.955025,-20.5818 0,-11.3671 -11.745622,-20.58189 -7.955025,-20.58189 3.790598,0 12.420424,9.21479 12.420424,20.58189 z"
       id="path3761"
       inkscape:connector-curvature="0"
       sodipodi:nodetypes="sssss" />
    <path
       sodipodi:nodetypes="sssss"
       inkscape:connector-curvature="0"
       id="path3764"
       d="m 48.503137,1020.1404 c 0,8.8106 -6.688979,15.953 -9.627071,15.953 -2.938093,0 6.165941,-7.1424 6.165941,-15.953 0,-8.8107 -9.104034,-15.953 -6.165941,-15.953 2.938092,0 9.627071,7.1423 9.627071,15.953 z"
       style="fill:#000000;fill-opacity:1;stroke:#ffffff;stroke-width:2;stroke-linejoin:miter;stroke-miterlimit:4;stroke-opacity:1" />
    <path
       sodipodi:nodetypes="sssss"
       inkscape:connector-curvature="0"
       id="path3766"
       d="m 61.11583,1020.1405 c 0,13.3271 -10.117936,24.1306 -14.562175,24.1306 -4.444242,0 9.326772,-10.8035 9.326772,-24.1306 0,-13.3273 -13.771014,-24.1311 -9.326772,-24.1311 4.444239,0 14.562175,10.8038 14.562175,24.1311 z"
       style="fill:#000000;fill-opacity:1;stroke:#ffffff;stroke-width:2.00000024;stroke-linejoin:miter;stroke-miterlimit:4;stroke-opacity:1" />
  </g>
</svg>
