<?xml version="1.0" encoding="UTF-8" standalone="no"?>
<!-- Created with Inkscape (http://www.inkscape.org/) -->

<svg
   xmlns:dc="http://purl.org/dc/elements/1.1/"
   xmlns:cc="http://creativecommons.org/ns#"
   xmlns:rdf="http://www.w3.org/1999/02/22-rdf-syntax-ns#"
   xmlns:svg="http://www.w3.org/2000/svg"
   xmlns="http://www.w3.org/2000/svg"
   xmlns:sodipodi="http://sodipodi.sourceforge.net/DTD/sodipodi-0.dtd"
   xmlns:inkscape="http://www.inkscape.org/namespaces/inkscape"
   width="200"
   height="200"
   id="svg2"
   version="1.1"
   inkscape:version="0.48.2 r9819"
   sodipodi:docname="blanket.svg"
   inkscape:export-filename="C:\Users\Jake\Documents\FlashDevelop\Cold\lib\art\worlditems\blanket.png"
   inkscape:export-xdpi="90"
   inkscape:export-ydpi="90">
  <defs
     id="defs4">
    <filter
       inkscape:collect="always"
       id="filter3834"
       x="-0.033125579"
       width="1.0662512"
       y="-0.21457693"
       height="1.4291539"
       color-interpolation-filters="sRGB">
      <feGaussianBlur
         inkscape:collect="always"
         stdDeviation="0.53799871"
         id="feGaussianBlur3836" />
    </filter>
    <filter
       inkscape:collect="always"
       id="filter3840"
       x="-0.041225273"
       width="1.0824505"
       y="-0.13008162"
       height="1.2601633"
       color-interpolation-filters="sRGB">
      <feGaussianBlur
         inkscape:collect="always"
         stdDeviation="0.94558862"
         id="feGaussianBlur3842" />
    </filter>
  </defs>
  <sodipodi:namedview
     id="base"
     pagecolor="#ffffff"
     bordercolor="#666666"
     borderopacity="1.0"
     inkscape:pageopacity="0.0"
     inkscape:pageshadow="2"
     inkscape:zoom="1.979899"
     inkscape:cx="134.35599"
     inkscape:cy="64.949661"
     inkscape:document-units="px"
     inkscape:current-layer="layer1-7"
     showgrid="false"
     inkscape:window-width="1440"
     inkscape:window-height="838"
     inkscape:window-x="-8"
     inkscape:window-y="-8"
     inkscape:window-maximized="1" />
  <metadata
     id="metadata7">
    <rdf:RDF>
      <cc:Work
         rdf:about="">
        <dc:format>image/svg+xml</dc:format>
        <dc:type
           rdf:resource="http://purl.org/dc/dcmitype/StillImage" />
        <dc:title></dc:title>
      </cc:Work>
    </rdf:RDF>
  </metadata>
  <g
     inkscape:label="Layer 1"
     inkscape:groupmode="layer"
     id="layer1"
     transform="translate(0,-852.36218)">
    <g
       transform="translate(289.37229,-559.17537)"
       id="layer1-7"
       inkscape:label="Layer 1">
      <path
         id="path3054"
         d="m -260.09594,1471.9865 c -6.95404,-0.7636 -14.41053,3.0524 -21.09496,10.9991 -8.51605,11.6556 -8.62553,27.6417 -5.10037,41.037 6.36045,1.8485 13.95244,0.1371 20.42009,3.4295 40.46498,12.1374 10.08087,9.2006 50.54586,21.3379 -29.83117,-35.3659 64.99187,-57.0532 111.85115,-35.066 -4.06814,-6.7231 -18.08499,-6.4377 -25.83941,-10.5708 -30.05544,-9.6666 -27.32475,-12.9256 -57.38004,-22.5926 -9.09891,-6.4595 -21.09688,-5.5322 -31.71075,-6.9253 -13.87524,-0.9878 -27.78168,-1.5367 -41.69157,-1.6482 z"
         style="font-size:medium;font-style:normal;font-variant:normal;font-weight:normal;font-stretch:normal;text-indent:0;text-align:start;text-decoration:none;line-height:normal;letter-spacing:normal;word-spacing:normal;text-transform:none;direction:ltr;block-progression:tb;writing-mode:lr-tb;text-anchor:start;baseline-shift:baseline;color:#000000;fill:#800000;fill-opacity:1;stroke:none;stroke-width:1px;marker:none;visibility:visible;display:inline;overflow:visible;enable-background:accumulate;font-family:Sans;-inkscape-font-specification:Sans"
         inkscape:connector-curvature="0"
         sodipodi:nodetypes="ccccccccccc" />
      <path
         style="font-size:medium;font-style:normal;font-variant:normal;font-weight:normal;font-stretch:normal;text-indent:0;text-align:start;text-decoration:none;line-height:normal;letter-spacing:normal;word-spacing:normal;text-transform:none;direction:ltr;block-progression:tb;writing-mode:lr-tb;text-anchor:start;baseline-shift:baseline;color:#000000;fill:#000000;fill-opacity:1;stroke:none;stroke-width:1px;marker:none;visibility:visible;display:inline;overflow:visible;enable-background:accumulate;font-family:Sans;-inkscape-font-specification:Sans"
         d="m -260.09594,1471.9865 c -6.95404,-0.7636 -14.41053,3.0524 -21.09496,10.9991 -8.51605,11.6556 -8.62553,29.1073 -5.10037,42.5027 6.36045,1.8485 13.95244,0.1371 20.42009,3.4295 40.46498,12.1374 10.8803,8.8008 51.34527,20.9381 24.38744,0.8375 -5.85964,-2.4685 -8.16161,-4.0268 -31.59147,-9.9375 -3.77312,-8.9357 -45.64276,-21.2711 -5.51742,-3.0473 -13.9628,-2.1628 -15.16528,-3.4957 -2.73198,-15.0497 -4.81404,-29.9001 7.89584,-40.9487 6.32967,-7.2619 16.40848,-5.72 23.20827,-5.8979 18.55191,0.4352 37.25172,1.0765 55.55477,4.2162 7.72587,2.8577 15.19305,6.3541 23.18663,8.504 32.93565,12.2099 34.88678,16.4858 70.57559,26.5215 -4.06813,-6.7231 -17.41877,-7.2371 -25.17319,-11.37 -30.05545,-9.6668 -28.39068,-11.8598 -58.44597,-21.5268 -9.09891,-6.4595 -21.09688,-5.5322 -31.71075,-6.9253 -13.87524,-0.9878 -27.78168,-1.5367 -41.69157,-1.6482 z"
         id="path2997"
         inkscape:connector-curvature="0"
         sodipodi:nodetypes="cccccccccccccccccc" />
      <path
         sodipodi:nodetypes="ccccsc"
         inkscape:connector-curvature="0"
         style="font-size:medium;font-style:normal;font-variant:normal;font-weight:normal;font-stretch:normal;text-indent:0;text-align:start;text-decoration:none;line-height:normal;letter-spacing:normal;word-spacing:normal;text-transform:none;direction:ltr;block-progression:tb;writing-mode:lr-tb;text-anchor:start;baseline-shift:baseline;color:#000000;fill:#6d0000;fill-opacity:1;stroke:none;stroke-width:1px;marker:none;visibility:visible;display:inline;overflow:visible;enable-background:accumulate;font-family:Sans;-inkscape-font-specification:Sans"
         d="m -278.79258,1482.9856 c -8.51606,11.6556 -8.62553,27.6417 -5.10037,41.037 6.36045,1.8485 11.55412,0.1371 18.02177,3.4295 40.46498,12.1374 10.08087,9.2006 50.54586,21.3379 -15.64821,-18.5617 2.90766,-33.8807 30.90051,-40.8004 25.37895,-6.2735 -87.68334,-32.9507 -94.36777,-25.004 z"
         id="path3830" />
      <path
         sodipodi:nodetypes="cccccccccccccccccccccccccccc"
         inkscape:connector-curvature="0"
         id="path5857"
         d="m -161.38396,1503.5926 c -22.00346,-0.4751 -29.99312,-3.3494 -48.44088,10.2117 -14.09042,10.45 -15.44725,10.0691 -11.09207,25.9363 2.6025,12.9715 11.34536,9.1937 24.21044,10.8405 14.99205,-0.095 45.08058,-4.3867 56.10884,-2.9634 1.03531,3.6883 -2.03058,2.6419 10.031,2.2748 3.39697,-0.021 13.72996,-2.6437 20.31816,-4.022 11.62876,-4.1598 20.828545,-2.0621 19.871497,-15.9013 -2.308227,-14.0903 -19.213807,-23.66 -46.802447,-25.1736 -8.05974,-0.5511 -16.13305,-0.8974 -24.20454,-1.203 z m -0.77101,6.3407 c 18.6455,1.1246 37.85133,0.5527 55.79367,6.3972 1.86679,1.1355 2.53186,0.5466 7.770018,7.6004 3.791443,10.7374 1.981049,10.187 -8.217508,15.2211 -8.0003,4.5967 -20.95434,5.9961 -29.91316,7.5643 -0.54141,0.1668 -4.07836,0.9438 -4.38425,0.8255 13.69244,-4.4811 27.93468,-5.802 37.2815,-17.5295 7.448324,-9.7249 -8.53193,-10.5186 -17.77685,-12.1453 -25.86821,-6.6202 -42.1257,-3.0121 -67.14994,4.7593 -5.63546,2.8818 -16.21393,5.5079 -18.05265,10.4794 0.28148,4.3108 2.78781,5.3926 10.07459,3.4558 24.2922,-7.2018 45.4068,-16.1672 70.32182,-9.2187 9.51636,1.1585 1.84118,-0.3473 9.09017,0.8696 -13.53184,11.9892 -27.87855,6.5268 -44.85116,11.1606 -22.02725,4.7127 -47.96448,9.9731 -49.42744,-2.4931 -3.15959,-14.2506 -1.2506,-11.2378 11.24038,-20.3226 17.90642,-13.1737 17.60568,-2.9225 38.20081,-6.6249 z"
         style="font-size:medium;font-style:normal;font-variant:normal;font-weight:normal;font-stretch:normal;text-indent:0;text-align:start;text-decoration:none;line-height:normal;letter-spacing:normal;word-spacing:normal;text-transform:none;direction:ltr;block-progression:tb;writing-mode:lr-tb;text-anchor:start;baseline-shift:baseline;color:#000000;fill:#800000;fill-opacity:1;stroke:none;stroke-width:1;marker:none;visibility:visible;display:inline;overflow:visible;enable-background:accumulate;font-family:Sans;-inkscape-font-specification:Sans" />
      <path
         style="font-size:medium;font-style:normal;font-variant:normal;font-weight:normal;font-stretch:normal;text-indent:0;text-align:start;text-decoration:none;line-height:normal;letter-spacing:normal;word-spacing:normal;text-transform:none;direction:ltr;block-progression:tb;writing-mode:lr-tb;text-anchor:start;baseline-shift:baseline;color:#000000;fill:#4f0000;fill-opacity:1;stroke:none;stroke-width:1px;marker:none;visibility:visible;display:inline;overflow:visible;enable-background:accumulate;font-family:Sans;-inkscape-font-specification:Sans"
         d="m -162.15497,1509.9333 c 18.6455,1.1246 37.85133,0.5527 55.79367,6.3972 1.86679,1.1355 2.53186,0.5466 7.770018,7.6004 3.791443,10.7374 1.981049,10.187 -8.217508,15.2211 -8.0003,4.5967 -20.72119,5.5963 -29.68,7.1645 -0.49431,0.19 -1.01216,0.021 -1.15318,-0.074 13.69243,-4.4813 24.47045,-4.5029 33.81727,-16.2305 7.448324,-9.7248 -8.53193,-10.5186 -17.77685,-12.1453 -25.86821,-6.6201 -42.1257,-3.0121 -67.14994,4.7593 -5.63546,2.8818 -16.21393,5.508 -18.05265,10.4794 0.28148,4.3108 2.78781,5.3926 10.07459,3.4559 24.2922,-7.2019 45.4068,-16.1672 70.32182,-9.2187 9.51636,1.1584 1.88592,-0.2866 9.13491,0.9303 -13.53184,11.9892 -27.92329,6.466 -44.8959,11.0998 -22.02725,4.7127 -47.96448,9.9731 -49.42744,-2.493 -3.15959,-14.2507 -1.2506,-11.2379 11.24038,-20.3226 17.90642,-13.1737 17.60568,-2.9226 38.20081,-6.6249 z"
         id="path3056"
         inkscape:connector-curvature="0"
         sodipodi:nodetypes="cccccccccccccccccc" />
      <path
         sodipodi:nodetypes="ccccc"
         inkscape:connector-curvature="0"
         id="path3832"
         d="m -192.85848,1523.395 c 11.51071,-3.4125 21.51574,-7.6607 33.32157,-4.3682 4.50927,0.5489 1.02755,-0.2697 4.46244,0.3069 -8.28697,2.7346 -13.72234,0.1619 -21.76471,2.3578 -10.43749,2.2331 -19.4721,2.6212 -16.0193,1.7035 z"
         style="font-size:medium;font-style:normal;font-variant:normal;font-weight:normal;font-stretch:normal;text-indent:0;text-align:start;text-decoration:none;line-height:normal;letter-spacing:normal;word-spacing:normal;text-transform:none;direction:ltr;block-progression:tb;writing-mode:lr-tb;text-anchor:start;baseline-shift:baseline;opacity:0.2035398;color:#000000;fill:#000000;fill-opacity:1;stroke:none;stroke-width:1px;marker:none;visibility:visible;display:inline;overflow:visible;filter:url(#filter3834);enable-background:accumulate;font-family:Sans;-inkscape-font-specification:Sans"
         transform="matrix(2.1103991,0,0,2.1103991,210.27883,-1678.4101)" />
      <path
         sodipodi:nodetypes="cccsccc"
         inkscape:connector-curvature="0"
         id="path3838"
         d="m -176.47553,1510.7774 c 8.83506,0.5329 17.93563,0.2619 26.4375,3.0313 0.88457,0.538 -27.18251,-0.6992 -39.0401,2.9832 -2.67033,1.3655 -11.55669,3.1575 -11.42408,2.2089 0.26466,-1.8931 1.98232,-2.2168 5.92546,-5.0847 8.48485,-6.2422 8.34235,-1.3848 18.10122,-3.1391 z"
         style="font-size:medium;font-style:normal;font-variant:normal;font-weight:normal;font-stretch:normal;text-indent:0;text-align:start;text-decoration:none;line-height:normal;letter-spacing:normal;word-spacing:normal;text-transform:none;direction:ltr;block-progression:tb;writing-mode:lr-tb;text-anchor:start;baseline-shift:baseline;opacity:0.23451329;color:#000000;fill:#000000;fill-opacity:1;stroke:none;stroke-width:1px;marker:none;visibility:visible;display:inline;overflow:visible;filter:url(#filter3840);enable-background:accumulate;font-family:Sans;-inkscape-font-specification:Sans"
         transform="matrix(2.1103991,0,0,2.1103991,210.27883,-1678.4101)" />
      <path
         style="font-size:medium;font-style:normal;font-variant:normal;font-weight:normal;font-stretch:normal;text-indent:0;text-align:start;text-decoration:none;line-height:normal;letter-spacing:normal;word-spacing:normal;text-transform:none;direction:ltr;block-progression:tb;writing-mode:lr-tb;text-anchor:start;baseline-shift:baseline;color:#000000;fill:#000000;fill-opacity:1;stroke:none;stroke-width:1;marker:none;visibility:visible;display:inline;overflow:visible;enable-background:accumulate;font-family:Sans;-inkscape-font-specification:Sans"
         d="m -175.63857,1503.057 c -9.79934,-0.6098 -19.9129,1.1197 -28.25204,6.5434 -6.12302,4.0103 -11.49194,8.0007 -16.81037,13.0491 -4.83374,5.1151 -1.84723,11.3696 -0.43506,17.2609 0.67539,5.1636 3.60537,9.3024 9.0705,9.7805 5.59301,0.5922 11.2481,0.6692 16.85436,1.0063 17.58645,-0.4329 35.05784,-2.667 52.67129,-2.1073 1.54736,0.8064 1.51919,3.5395 4.94909,2.2578 9.27689,0.4047 18.18063,-2.4464 27.1714,-4.2214 6.34357,-2.6504 14.233659,-1.3112 18.446675,-7.5332 4.28332,-8.0828 -0.0867,-17.8847 -6.76489,-23.1821 -12.324225,-9.8741 -27.683855,-10.567 -42.927345,-11.3681 -11.31406,-0.735 -22.64798,-1.0149 -33.97361,-1.4859 z m 0,1.1103 c 17.22534,0.7711 34.50137,0.5959 51.52016,3.1707 11.10388,2.0622 23.38365,5.8165 30.000412,15.6848 3.230071,4.8991 4.340003,12.5793 -0.289667,16.9534 -4.758618,3.3691 -10.879745,3.7433 -16.204235,5.8058 -9.42092,2.0168 -18.87834,4.9052 -28.62229,4.0225 1.11733,-3.7097 8.60011,-3.0084 12.3886,-4.564 7.88006,-1.2183 15.49041,-2.6775 22.4515,-6.6312 4.65097,-1.4301 9.84517,-5.4012 7.436535,-10.8497 -0.77323,-4.7475 -3.351565,-7.5347 -6.938385,-10.5106 -5.31451,-2.9318 -11.57272,-3.5814 -17.44755,-4.7707 -13.15971,-2.081 -26.51553,-2.8054 -39.78609,-3.5607 -2.80848,-0.1288 -7.23748,1.2175 -10.62676,0.841 -6.85033,-0.1393 -14.09494,-2.8816 -20.57381,0.6674 -6.44768,3.1152 -11.8808,7.9083 -18.03081,11.5368 -4.55984,2.5434 -3.88708,8.3219 -2.80097,12.5927 0.468,3.5766 1.61935,7.5312 5.24198,9.1151 8.19943,3.5542 17.47586,1.6918 26.01375,0.618 12.33542,-1.689 24.26422,-5.9284 36.79001,-6.185 10.51939,-0.3559 18.68784,-1.1601 26.67448,-8.7907 3.42197,-2.0306 -2.26786,-1.4026 -3.62959,-2.0536 -4.89514,0.2499 -6.30009,-1.5508 -11.05416,-2.5038 -20.51393,-3.6565 -40.61099,3.635 -59.93118,9.6131 -3.84422,0.7942 -9.89769,4.255 -12.48367,0.05 0.49001,-4.8419 6.97253,-6.1449 10.77857,-8.0806 7.88059,-3.678 16.33735,-6.4759 24.74763,-8.5956 15.74552,-4.1035 32.4534,-3.8241 48.12477,0.4738 5.84812,1.1508 13.24694,1.8627 18.50857,4.9462 3.945179,4.0379 -2.26158,8.555 -5.13612,11.2255 -9.18705,7.1334 -20.71779,8.9916 -31.42392,12.6574 -16.02989,-0.8404 -33.57474,1.4501 -49.55894,2.2299 -7.15306,0.6316 -14.29364,-0.3495 -21.43774,-0.668 -4.99184,-0.036 -8.51769,-4.4403 -8.95352,-9.1551 -1.06108,-5.0709 -4.02963,-11.1294 -0.43474,-15.7998 5.20083,-5.1648 11.41196,-9.2591 17.50959,-13.292 8.04282,-5.275 17.72595,-6.8166 27.17759,-6.1934 z m -6.7269,6.595 c 6.73641,1.1194 13.63753,1.4751 20.37854,0.1984 18.68425,1.2016 37.98747,0.4554 55.88125,6.7284 4.45513,2.6723 7.619308,7.4068 8.222128,12.5949 0.493931,5.0657 -6.373118,5.6898 -9.430848,7.9793 -4.14338,2.5751 -12.67693,4.5164 -14.99415,4.7788 8.2296,-2.7372 16.79558,-7.2725 20.98323,-15.1643 2.476783,-6.306 -5.66511,-8.7801 -10.33306,-9.4687 -6.82216,-0.8908 -13.47978,-2.5506 -20.23784,-3.7876 -17.88476,-3.3087 -36.0837,0.3732 -53.16121,5.7844 -5.50334,1.5717 -10.66059,4.1409 -15.93995,6.3599 -3.1985,1.5714 -8.45445,4.5017 -6.36843,8.8307 2.19505,4.7002 8.21163,2.7268 12.09234,1.6676 19.64245,-5.8604 39.77125,-13.8751 60.64194,-10.5984 5.0403,0.7818 9.93842,2.559 15.11638,2.1669 -0.0211,1.7885 -6.52986,4.3625 -9.67261,5.2373 -11.2313,2.8804 -23.12693,1.1411 -34.294,4.4795 -12.5746,2.4376 -25.32507,5.9307 -38.23714,4.7152 -4.86861,-0.1225 -9.19217,-3.5136 -9.27539,-8.4727 -2.15133,-5.4261 -0.49374,-11.2675 5.29524,-13.2915 7.29469,-4.3465 14.06073,-11.9023 23.33358,-10.7381 z"
         id="path3844"
         inkscape:connector-curvature="0"
         sodipodi:nodetypes="ccccccccccccccccccccccccccccccccccccccccccccccccccccccccccccccccccccccc" />
    </g>
  </g>
</svg>
