<?xml version="1.0" encoding="UTF-8" standalone="no"?>
<!-- Created with Inkscape (http://www.inkscape.org/) -->

<svg
   xmlns:dc="http://purl.org/dc/elements/1.1/"
   xmlns:cc="http://creativecommons.org/ns#"
   xmlns:rdf="http://www.w3.org/1999/02/22-rdf-syntax-ns#"
   xmlns:svg="http://www.w3.org/2000/svg"
   xmlns="http://www.w3.org/2000/svg"
   xmlns:xlink="http://www.w3.org/1999/xlink"
   xmlns:sodipodi="http://sodipodi.sourceforge.net/DTD/sodipodi-0.dtd"
   xmlns:inkscape="http://www.inkscape.org/namespaces/inkscape"
   width="100"
   height="100"
   id="svg8364"
   version="1.1"
   inkscape:version="0.48.2 r9819"
   sodipodi:docname="key.svg"
   inkscape:export-filename="C:\Users\Jake\Documents\FlashDevelop\Cold\lib\art\worlditems\key.png"
   inkscape:export-xdpi="90"
   inkscape:export-ydpi="90">
  <defs
     id="defs8366">
    <linearGradient
       inkscape:collect="always"
       id="linearGradient8927">
      <stop
         style="stop-color:#808080;stop-opacity:1"
         offset="0"
         id="stop8929" />
      <stop
         style="stop-color:#b3b3b3;stop-opacity:1"
         offset="1"
         id="stop8931" />
    </linearGradient>
    <linearGradient
       inkscape:collect="always"
       xlink:href="#linearGradient8927"
       id="linearGradient8933"
       x1="95.711952"
       y1="23.473833"
       x2="95.711952"
       y2="28.788187"
       gradientUnits="userSpaceOnUse"
       gradientTransform="matrix(1.0227448,1.0400066,-1.042268,1.0217896,18.072931,909.50309)" />
  </defs>
  <sodipodi:namedview
     id="base"
     pagecolor="#ffffff"
     bordercolor="#666666"
     borderopacity="1.0"
     inkscape:pageopacity="0.0"
     inkscape:pageshadow="2"
     inkscape:zoom="3.959798"
     inkscape:cx="91.70756"
     inkscape:cy="39.245014"
     inkscape:document-units="px"
     inkscape:current-layer="layer1"
     showgrid="false"
     inkscape:window-width="1440"
     inkscape:window-height="838"
     inkscape:window-x="-8"
     inkscape:window-y="-8"
     inkscape:window-maximized="1" />
  <metadata
     id="metadata8369">
    <rdf:RDF>
      <cc:Work
         rdf:about="">
        <dc:format>image/svg+xml</dc:format>
        <dc:type
           rdf:resource="http://purl.org/dc/dcmitype/StillImage" />
        <dc:title></dc:title>
      </cc:Work>
    </rdf:RDF>
  </metadata>
  <g
     inkscape:label="Layer 1"
     inkscape:groupmode="layer"
     id="layer1"
     transform="translate(0,-952.36218)">
    <path
       style="fill:url(#linearGradient8933);fill-opacity:1;stroke:#575757;stroke-width:1;stroke-opacity:1"
       d="m 39.873502,961.30712 c -7.34106,-8.96841 -17.614734,-8.73659 -25.897291,-0.61675 -8.2826962,8.11996 -8.369123,17.25564 -0.241661,25.52028 7.646163,7.77522 15.085602,11.43546 25.136079,3.3127 l 29.581986,30.08125 -7.100471,6.9608 -3.483727,-3.5425 -9.113396,4.8492 2.844485,2.8924 4.897112,0.8166 0.759967,4.936 3.923053,1.4522 1.733984,4.3003 6.815173,-0.6809 -1.158095,6.4335 2.844484,2.8924 5.022447,-9.009 -2.748624,-2.795 7.100471,-6.9609 2.941971,2.8719 c 3.573651,-1.3044 5.15092,-3.5162 6.123292,-6.0029 L 44.546462,983.06538 c 5.979,-9.69111 1.562932,-14.14 -4.67296,-21.75826 z m -4.750326,1.93295 c 6.993549,5.59371 10.039397,12.68477 1.899459,20.32285 -6.376528,5.98339 -14.189175,5.22541 -20.316315,-1.00516 -6.127136,-6.23055 -6.071624,-12.09451 0.1725,-18.21594 6.244083,-6.12139 11.421124,-6.55923 18.244356,-1.10175 z m 38.526165,63.01513 -0.0076,4.2204 -4.226571,-0.07 0.03973,-4.1878 z"
       id="rect8895"
       inkscape:connector-curvature="0"
       sodipodi:nodetypes="ssscccccccccccccccccccssssssccccc" />
    <path
       style="fill:#e6e6e6;fill-opacity:1;stroke:none"
       d="m 51.996693,1026.7236 -2.287402,1.2819 2.056319,2.3055 5.164929,0.8081 0.654021,5.2266 3.765096,1.375 1.643486,4.123 7.366517,-0.8142 -1.200323,6.7868 2.151022,2.2108 1.404437,-2.5401 -2.071949,-1.8475 1.105621,-6.1555 -6.514199,0.6564 -1.673373,-4.1229 -3.765091,-1.3751 -0.717156,-4.7215 -4.691422,-0.7765 z"
       id="path8936"
       inkscape:connector-curvature="0"
       sodipodi:nodetypes="ccccccccccccccccccc" />
  </g>
</svg>
