<?xml version="1.0" encoding="UTF-8" standalone="no"?>
<!-- Created with Inkscape (http://www.inkscape.org/) -->

<svg
   xmlns:dc="http://purl.org/dc/elements/1.1/"
   xmlns:cc="http://creativecommons.org/ns#"
   xmlns:rdf="http://www.w3.org/1999/02/22-rdf-syntax-ns#"
   xmlns:svg="http://www.w3.org/2000/svg"
   xmlns="http://www.w3.org/2000/svg"
   xmlns:sodipodi="http://sodipodi.sourceforge.net/DTD/sodipodi-0.dtd"
   xmlns:inkscape="http://www.inkscape.org/namespaces/inkscape"
   width="128"
   height="80"
   id="svg9691"
   version="1.1"
   inkscape:version="0.48.2 r9819"
   sodipodi:docname="New document 20">
  <defs
     id="defs9693">
    <filter
       inkscape:collect="always"
       id="filter10822">
      <feGaussianBlur
         inkscape:collect="always"
         stdDeviation="0.68792529"
         id="feGaussianBlur10824" />
    </filter>
  </defs>
  <sodipodi:namedview
     id="base"
     pagecolor="#ffffff"
     bordercolor="#666666"
     borderopacity="1.0"
     inkscape:pageopacity="0.0"
     inkscape:pageshadow="2"
     inkscape:zoom="3.959798"
     inkscape:cx="47.893923"
     inkscape:cy="40.420541"
     inkscape:document-units="px"
     inkscape:current-layer="layer1"
     showgrid="false"
     inkscape:object-paths="false"
     inkscape:window-width="1440"
     inkscape:window-height="838"
     inkscape:window-x="-8"
     inkscape:window-y="-8"
     inkscape:window-maximized="1" />
  <metadata
     id="metadata9696">
    <rdf:RDF>
      <cc:Work
         rdf:about="">
        <dc:format>image/svg+xml</dc:format>
        <dc:type
           rdf:resource="http://purl.org/dc/dcmitype/StillImage" />
        <dc:title></dc:title>
      </cc:Work>
    </rdf:RDF>
  </metadata>
  <g
     inkscape:label="Layer 1"
     inkscape:groupmode="layer"
     id="layer1"
     transform="translate(0,-972.36218)">
    <g
       id="g10827"
       transform="matrix(1.8112025,0,0,1.8112025,-52.165652,-828.77143)">
      <path
         sodipodi:nodetypes="ccccc"
         inkscape:connector-curvature="0"
         id="rect10812"
         d="m 1371.155,1172.6669 21.5763,0 0.4939,38.1566 -21.5763,0 z"
         style="opacity:0.66371681;fill:#535353;fill-opacity:1;stroke:none;filter:url(#filter10822)"
         transform="matrix(0.86809121,0.49640473,-0.95939588,0.28206302,1.515229,0.50507627)" />
      <rect
         transform="matrix(0.86809121,0.49640473,-0.95939588,0.28206302,0,0)"
         y="1171.7977"
         x="1371.6489"
         height="39.025768"
         width="21.576231"
         id="rect10780"
         style="fill:#ececec;fill-opacity:1;stroke:none" />
      <path
         inkscape:connector-curvature="0"
         id="path10778"
         d="m 67.27455,1013.3592 -0.482526,0.1418 6.846905,3.9153 0.482527,-0.1419 -6.846906,-3.9152 z m 8.158016,4.6649 -0.482527,0.1419 4.516044,2.5824 2.094134,1.1975 0.482526,-0.1418 -2.094133,-1.1975 -4.516044,-2.5825 z m -7.452507,-2.8542 -0.482526,0.1418 10.343198,5.9146 0.482526,-0.1419 -10.343198,-5.9145 z m 10.488877,5.9979 -0.482527,0.1418 1.948455,1.1142 0.482526,-0.1419 -1.948454,-1.1141 z m -15.246325,-7.3111 -0.482526,0.1419 2.185183,1.2495 0.482526,-0.1419 -2.185183,-1.2495 z m 5.462957,3.1239 -0.482526,0.1418 6.846905,3.9153 0.364197,0.2083 0.801234,0.4582 2.094133,1.1975 0.482527,-0.1419 -2.094134,-1.1975 -0.801233,-0.4582 -0.364197,-0.2082 -6.846906,-3.9153 z m -6.287076,-2.1879 -0.482526,0.1419 2.330861,1.3328 11.508629,6.5811 0.364197,0.2082 0.482527,-0.1419 -0.364197,-0.2082 -11.508629,-6.5811 -2.330862,-1.3328 z m -2.881832,-0.2407 -0.482527,0.1419 5.772524,3.3009 1.529628,0.8747 5.462957,3.1239 3.259564,1.864 0.482527,-0.1419 -3.259565,-1.8639 -5.462956,-3.1239 -1.529628,-0.8747 -5.772524,-3.301 z m -1.625353,0.4779 -0.482526,0.1419 2.42191,1.3849 8.376534,4.79 4.297526,2.4575 0.928702,0.531 0.482527,-0.1418 -0.928703,-0.5311 -4.297526,-2.4575 -8.376533,-4.79 -2.421911,-1.3849 z m -1.625352,0.4779 -0.482527,0.1418 6.937955,3.9674 3.860489,2.2075 5.226229,2.9886 0.482526,-0.1419 -5.226228,-2.9885 -3.86049,-2.2076 -6.937954,-3.9673 z m -1.625353,0.4778 -0.482527,0.1419 11.963875,6.8413 0.482527,-0.1418 -11.963875,-6.8414 z m 12.910787,7.3828 -0.482526,0.1419 3.113885,1.7806 0.482527,-0.1418 -3.113886,-1.7807 z m -14.53614,-6.9049 -0.482526,0.1418 2.640429,1.5099 0.482526,-0.1419 -2.640429,-1.5098 z m 3.951539,2.2596 -0.482527,0.1418 6.846906,3.9154 4.297526,2.4574 0.482526,-0.1418 -4.297525,-2.4575 -6.846906,-3.9153 z m -5.576891,-1.7818 -0.482527,0.1419 2.640429,1.5099 9.323446,5.3314 0.482527,-0.1418 -9.323446,-5.3315 -2.640429,-1.5099 z m -1.625353,0.4779 -0.482527,0.1418 3.80586,2.1764 0.482527,-0.1419 -3.80586,-2.1763 z m 4.752772,2.7178 -0.482526,0.1418 9.177767,5.2482 1.165431,0.6664 0.482526,-0.1418 -1.165431,-0.6665 -9.177767,-5.2481 z m -6.378125,-2.24 -0.482526,0.1419 5.772524,3.3009 1.165431,0.6665 0.482526,-0.1419 -1.16543,-0.6665 -5.772525,-3.3009 z m 8.613262,4.9254 -0.482527,0.1418 7.411412,4.2381 0.482526,-0.1418 -7.411411,-4.2381 z m -9.783368,-4.1872 -0.482526,0.1419 9.177767,5.2481 1.165431,0.6665 0.482526,-0.1419 -1.165431,-0.6664 -9.177767,-5.2482 z m 11.290111,6.4561 -0.482527,0.1419 4.279316,2.447 0.482527,-0.1419 -4.279316,-2.447 z m -9.783368,-4.1872 -0.482527,0.1418 12.437331,7.1122 0.482527,-0.1419 -12.437331,-7.1121 z m -4.757448,-1.3132 -0.482527,0.1419 9.177767,5.2481 1.966665,1.1247 0.482526,-0.1419 -1.966664,-1.1246 -9.177767,-5.2482 z m 12.455541,7.1225 -0.482527,0.1419 3.113886,1.7806 0.482526,-0.1419 -3.113885,-1.7806 z m -14.53614,-6.9049 -0.482527,0.1418 2.640429,1.5099 0.482527,-0.1419 -2.640429,-1.5098 z m 3.587341,2.0513 -0.482526,0.1419 12.437331,7.1121 0.482527,-0.1419 -12.437332,-7.1121 z m -5.212694,-1.5735 -0.482526,0.1419 8.103385,4.6338 0.509876,0.2915 4.151847,2.3742 3.259565,1.8639 0.482526,-0.1418 -3.259564,-1.864 -4.151847,-2.3741 -0.509876,-0.2916 -8.103386,-4.6338 z m -1.625352,0.4778 -0.482527,0.1419 3.441663,1.9681 9.687643,5.5397 2.895367,1.6557 0.482526,-0.1419 -2.895367,-1.6556 -9.687643,-5.5398 -3.441662,-1.9681 z m -1.625353,0.4779 -0.482527,0.1419 2.786108,1.5932 6.482709,3.707 0.364197,0.2083 3.132095,1.791 3.259564,1.864 0.482527,-0.1419 -3.259564,-1.8639 -3.132095,-1.7911 -0.364198,-0.2083 -6.482708,-3.707 -2.786108,-1.5932 z m -1.534303,0.5299 -0.482527,0.1419 4.516044,2.5824 7.356782,4.2069 1.165431,0.6664 1.16543,0.6665 0.482527,-0.1419 -1.165431,-0.6665 -1.165431,-0.6664 -7.356781,-4.2069 -4.516044,-2.5824 z m -1.716402,0.4258 -0.482526,0.1419 2.42191,1.3849 3.71481,2.1243 3.496293,1.9993 0.482526,-0.1419 -3.496292,-1.9993 -3.71481,-2.1243 -2.421911,-1.3849 z m 12.910787,7.3829 -0.482526,0.1418 2.185182,1.2496 0.482527,-0.1419 -2.185183,-1.2495 z m -12.915463,-5.9783 -0.304753,0.09 10.343198,5.9146 0.304753,-0.09 -10.343198,-5.9146 z m 13.985169,7.9973 -0.304753,0.09 0.418826,0.2395 0.304754,-0.09 -0.418827,-0.2395 z"
         style="fill:#4b4b4b;fill-opacity:1;stroke:none" />
    </g>
    <g
       id="g10832"
       transform="matrix(-1.8112025,0,0,1.8112025,177.69927,-833.34542)">
      <path
         transform="matrix(0.86809121,0.49640473,-0.95939588,0.28206302,1.515229,0.50507627)"
         style="opacity:0.66371681;fill:#535353;fill-opacity:1;stroke:none;filter:url(#filter10822)"
         d="m 1371.155,1172.6669 21.5763,0 0.4939,38.1566 -21.5763,0 z"
         id="path10834"
         inkscape:connector-curvature="0"
         sodipodi:nodetypes="ccccc" />
      <rect
         style="fill:#ececec;fill-opacity:1;stroke:none"
         id="rect10836"
         width="21.576231"
         height="39.025768"
         x="1371.6489"
         y="1171.7977"
         transform="matrix(0.86809121,0.49640473,-0.95939588,0.28206302,0,0)" />
      <path
         style="fill:#4b4b4b;fill-opacity:1;stroke:none"
         d="m 67.27455,1013.3592 -0.482526,0.1418 6.846905,3.9153 0.482527,-0.1419 -6.846906,-3.9152 z m 8.158016,4.6649 -0.482527,0.1419 4.516044,2.5824 2.094134,1.1975 0.482526,-0.1418 -2.094133,-1.1975 -4.516044,-2.5825 z m -7.452507,-2.8542 -0.482526,0.1418 10.343198,5.9146 0.482526,-0.1419 -10.343198,-5.9145 z m 10.488877,5.9979 -0.482527,0.1418 1.948455,1.1142 0.482526,-0.1419 -1.948454,-1.1141 z m -15.246325,-7.3111 -0.482526,0.1419 2.185183,1.2495 0.482526,-0.1419 -2.185183,-1.2495 z m 5.462957,3.1239 -0.482526,0.1418 6.846905,3.9153 0.364197,0.2083 0.801234,0.4582 2.094133,1.1975 0.482527,-0.1419 -2.094134,-1.1975 -0.801233,-0.4582 -0.364197,-0.2082 -6.846906,-3.9153 z m -6.287076,-2.1879 -0.482526,0.1419 2.330861,1.3328 11.508629,6.5811 0.364197,0.2082 0.482527,-0.1419 -0.364197,-0.2082 -11.508629,-6.5811 -2.330862,-1.3328 z m -2.881832,-0.2407 -0.482527,0.1419 5.772524,3.3009 1.529628,0.8747 5.462957,3.1239 3.259564,1.864 0.482527,-0.1419 -3.259565,-1.8639 -5.462956,-3.1239 -1.529628,-0.8747 -5.772524,-3.301 z m -1.625353,0.4779 -0.482526,0.1419 2.42191,1.3849 8.376534,4.79 4.297526,2.4575 0.928702,0.531 0.482527,-0.1418 -0.928703,-0.5311 -4.297526,-2.4575 -8.376533,-4.79 -2.421911,-1.3849 z m -1.625352,0.4779 -0.482527,0.1418 6.937955,3.9674 3.860489,2.2075 5.226229,2.9886 0.482526,-0.1419 -5.226228,-2.9885 -3.86049,-2.2076 -6.937954,-3.9673 z m -1.625353,0.4778 -0.482527,0.1419 11.963875,6.8413 0.482527,-0.1418 -11.963875,-6.8414 z m 12.910787,7.3828 -0.482526,0.1419 3.113885,1.7806 0.482527,-0.1418 -3.113886,-1.7807 z m -14.53614,-6.9049 -0.482526,0.1418 2.640429,1.5099 0.482526,-0.1419 -2.640429,-1.5098 z m 3.951539,2.2596 -0.482527,0.1418 6.846906,3.9154 4.297526,2.4574 0.482526,-0.1418 -4.297525,-2.4575 -6.846906,-3.9153 z m -5.576891,-1.7818 -0.482527,0.1419 2.640429,1.5099 9.323446,5.3314 0.482527,-0.1418 -9.323446,-5.3315 -2.640429,-1.5099 z m -1.625353,0.4779 -0.482527,0.1418 3.80586,2.1764 0.482527,-0.1419 -3.80586,-2.1763 z m 4.752772,2.7178 -0.482526,0.1418 9.177767,5.2482 1.165431,0.6664 0.482526,-0.1418 -1.165431,-0.6665 -9.177767,-5.2481 z m -6.378125,-2.24 -0.482526,0.1419 5.772524,3.3009 1.165431,0.6665 0.482526,-0.1419 -1.16543,-0.6665 -5.772525,-3.3009 z m 8.613262,4.9254 -0.482527,0.1418 7.411412,4.2381 0.482526,-0.1418 -7.411411,-4.2381 z m -9.783368,-4.1872 -0.482526,0.1419 9.177767,5.2481 1.165431,0.6665 0.482526,-0.1419 -1.165431,-0.6664 -9.177767,-5.2482 z m 11.290111,6.4561 -0.482527,0.1419 4.279316,2.447 0.482527,-0.1419 -4.279316,-2.447 z m -9.783368,-4.1872 -0.482527,0.1418 12.437331,7.1122 0.482527,-0.1419 -12.437331,-7.1121 z m -4.757448,-1.3132 -0.482527,0.1419 9.177767,5.2481 1.966665,1.1247 0.482526,-0.1419 -1.966664,-1.1246 -9.177767,-5.2482 z m 12.455541,7.1225 -0.482527,0.1419 3.113886,1.7806 0.482526,-0.1419 -3.113885,-1.7806 z m -14.53614,-6.9049 -0.482527,0.1418 2.640429,1.5099 0.482527,-0.1419 -2.640429,-1.5098 z m 3.587341,2.0513 -0.482526,0.1419 12.437331,7.1121 0.482527,-0.1419 -12.437332,-7.1121 z m -5.212694,-1.5735 -0.482526,0.1419 8.103385,4.6338 0.509876,0.2915 4.151847,2.3742 3.259565,1.8639 0.482526,-0.1418 -3.259564,-1.864 -4.151847,-2.3741 -0.509876,-0.2916 -8.103386,-4.6338 z m -1.625352,0.4778 -0.482527,0.1419 3.441663,1.9681 9.687643,5.5397 2.895367,1.6557 0.482526,-0.1419 -2.895367,-1.6556 -9.687643,-5.5398 -3.441662,-1.9681 z m -1.625353,0.4779 -0.482527,0.1419 2.786108,1.5932 6.482709,3.707 0.364197,0.2083 3.132095,1.791 3.259564,1.864 0.482527,-0.1419 -3.259564,-1.8639 -3.132095,-1.7911 -0.364198,-0.2083 -6.482708,-3.707 -2.786108,-1.5932 z m -1.534303,0.5299 -0.482527,0.1419 4.516044,2.5824 7.356782,4.2069 1.165431,0.6664 1.16543,0.6665 0.482527,-0.1419 -1.165431,-0.6665 -1.165431,-0.6664 -7.356781,-4.2069 -4.516044,-2.5824 z m -1.716402,0.4258 -0.482526,0.1419 2.42191,1.3849 3.71481,2.1243 3.496293,1.9993 0.482526,-0.1419 -3.496292,-1.9993 -3.71481,-2.1243 -2.421911,-1.3849 z m 12.910787,7.3829 -0.482526,0.1418 2.185182,1.2496 0.482527,-0.1419 -2.185183,-1.2495 z m -12.915463,-5.9783 -0.304753,0.09 10.343198,5.9146 0.304753,-0.09 -10.343198,-5.9146 z m 13.985169,7.9973 -0.304753,0.09 0.418826,0.2395 0.304754,-0.09 -0.418827,-0.2395 z"
         id="path10838"
         inkscape:connector-curvature="0" />
    </g>
    <g
       transform="matrix(-1.8112025,0,0,1.8112025,180.21496,-823.05396)"
       id="g10840">
      <path
         sodipodi:nodetypes="ccccc"
         inkscape:connector-curvature="0"
         id="path10842"
         d="m 1371.155,1172.6669 21.5763,0 0.4939,38.1566 -21.5763,0 z"
         style="opacity:0.66371681;fill:#535353;fill-opacity:1;stroke:none;filter:url(#filter10822)"
         transform="matrix(0.86809121,0.49640473,-0.95939588,0.28206302,1.515229,0.50507627)" />
      <rect
         transform="matrix(0.86809121,0.49640473,-0.95939588,0.28206302,0,0)"
         y="1171.7977"
         x="1371.6489"
         height="39.025768"
         width="21.576231"
         id="rect10844"
         style="fill:#ececec;fill-opacity:1;stroke:none" />
      <path
         inkscape:connector-curvature="0"
         id="path10846"
         d="m 67.27455,1013.3592 -0.482526,0.1418 6.846905,3.9153 0.482527,-0.1419 -6.846906,-3.9152 z m 8.158016,4.6649 -0.482527,0.1419 4.516044,2.5824 2.094134,1.1975 0.482526,-0.1418 -2.094133,-1.1975 -4.516044,-2.5825 z m -7.452507,-2.8542 -0.482526,0.1418 10.343198,5.9146 0.482526,-0.1419 -10.343198,-5.9145 z m 10.488877,5.9979 -0.482527,0.1418 1.948455,1.1142 0.482526,-0.1419 -1.948454,-1.1141 z m -15.246325,-7.3111 -0.482526,0.1419 2.185183,1.2495 0.482526,-0.1419 -2.185183,-1.2495 z m 5.462957,3.1239 -0.482526,0.1418 6.846905,3.9153 0.364197,0.2083 0.801234,0.4582 2.094133,1.1975 0.482527,-0.1419 -2.094134,-1.1975 -0.801233,-0.4582 -0.364197,-0.2082 -6.846906,-3.9153 z m -6.287076,-2.1879 -0.482526,0.1419 2.330861,1.3328 11.508629,6.5811 0.364197,0.2082 0.482527,-0.1419 -0.364197,-0.2082 -11.508629,-6.5811 -2.330862,-1.3328 z m -2.881832,-0.2407 -0.482527,0.1419 5.772524,3.3009 1.529628,0.8747 5.462957,3.1239 3.259564,1.864 0.482527,-0.1419 -3.259565,-1.8639 -5.462956,-3.1239 -1.529628,-0.8747 -5.772524,-3.301 z m -1.625353,0.4779 -0.482526,0.1419 2.42191,1.3849 8.376534,4.79 4.297526,2.4575 0.928702,0.531 0.482527,-0.1418 -0.928703,-0.5311 -4.297526,-2.4575 -8.376533,-4.79 -2.421911,-1.3849 z m -1.625352,0.4779 -0.482527,0.1418 6.937955,3.9674 3.860489,2.2075 5.226229,2.9886 0.482526,-0.1419 -5.226228,-2.9885 -3.86049,-2.2076 -6.937954,-3.9673 z m -1.625353,0.4778 -0.482527,0.1419 11.963875,6.8413 0.482527,-0.1418 -11.963875,-6.8414 z m 12.910787,7.3828 -0.482526,0.1419 3.113885,1.7806 0.482527,-0.1418 -3.113886,-1.7807 z m -14.53614,-6.9049 -0.482526,0.1418 2.640429,1.5099 0.482526,-0.1419 -2.640429,-1.5098 z m 3.951539,2.2596 -0.482527,0.1418 6.846906,3.9154 4.297526,2.4574 0.482526,-0.1418 -4.297525,-2.4575 -6.846906,-3.9153 z m -5.576891,-1.7818 -0.482527,0.1419 2.640429,1.5099 9.323446,5.3314 0.482527,-0.1418 -9.323446,-5.3315 -2.640429,-1.5099 z m -1.625353,0.4779 -0.482527,0.1418 3.80586,2.1764 0.482527,-0.1419 -3.80586,-2.1763 z m 4.752772,2.7178 -0.482526,0.1418 9.177767,5.2482 1.165431,0.6664 0.482526,-0.1418 -1.165431,-0.6665 -9.177767,-5.2481 z m -6.378125,-2.24 -0.482526,0.1419 5.772524,3.3009 1.165431,0.6665 0.482526,-0.1419 -1.16543,-0.6665 -5.772525,-3.3009 z m 8.613262,4.9254 -0.482527,0.1418 7.411412,4.2381 0.482526,-0.1418 -7.411411,-4.2381 z m -9.783368,-4.1872 -0.482526,0.1419 9.177767,5.2481 1.165431,0.6665 0.482526,-0.1419 -1.165431,-0.6664 -9.177767,-5.2482 z m 11.290111,6.4561 -0.482527,0.1419 4.279316,2.447 0.482527,-0.1419 -4.279316,-2.447 z m -9.783368,-4.1872 -0.482527,0.1418 12.437331,7.1122 0.482527,-0.1419 -12.437331,-7.1121 z m -4.757448,-1.3132 -0.482527,0.1419 9.177767,5.2481 1.966665,1.1247 0.482526,-0.1419 -1.966664,-1.1246 -9.177767,-5.2482 z m 12.455541,7.1225 -0.482527,0.1419 3.113886,1.7806 0.482526,-0.1419 -3.113885,-1.7806 z m -14.53614,-6.9049 -0.482527,0.1418 2.640429,1.5099 0.482527,-0.1419 -2.640429,-1.5098 z m 3.587341,2.0513 -0.482526,0.1419 12.437331,7.1121 0.482527,-0.1419 -12.437332,-7.1121 z m -5.212694,-1.5735 -0.482526,0.1419 8.103385,4.6338 0.509876,0.2915 4.151847,2.3742 3.259565,1.8639 0.482526,-0.1418 -3.259564,-1.864 -4.151847,-2.3741 -0.509876,-0.2916 -8.103386,-4.6338 z m -1.625352,0.4778 -0.482527,0.1419 3.441663,1.9681 9.687643,5.5397 2.895367,1.6557 0.482526,-0.1419 -2.895367,-1.6556 -9.687643,-5.5398 -3.441662,-1.9681 z m -1.625353,0.4779 -0.482527,0.1419 2.786108,1.5932 6.482709,3.707 0.364197,0.2083 3.132095,1.791 3.259564,1.864 0.482527,-0.1419 -3.259564,-1.8639 -3.132095,-1.7911 -0.364198,-0.2083 -6.482708,-3.707 -2.786108,-1.5932 z m -1.534303,0.5299 -0.482527,0.1419 4.516044,2.5824 7.356782,4.2069 1.165431,0.6664 1.16543,0.6665 0.482527,-0.1419 -1.165431,-0.6665 -1.165431,-0.6664 -7.356781,-4.2069 -4.516044,-2.5824 z m -1.716402,0.4258 -0.482526,0.1419 2.42191,1.3849 3.71481,2.1243 3.496293,1.9993 0.482526,-0.1419 -3.496292,-1.9993 -3.71481,-2.1243 -2.421911,-1.3849 z m 12.910787,7.3829 -0.482526,0.1418 2.185182,1.2496 0.482527,-0.1419 -2.185183,-1.2495 z m -12.915463,-5.9783 -0.304753,0.09 10.343198,5.9146 0.304753,-0.09 -10.343198,-5.9146 z m 13.985169,7.9973 -0.304753,0.09 0.418826,0.2395 0.304754,-0.09 -0.418827,-0.2395 z"
         style="fill:#4b4b4b;fill-opacity:1;stroke:none" />
    </g>
    <g
       id="g10848"
       transform="matrix(1.8112025,0,0,1.8112025,-32.726252,-837.46197)">
      <path
         transform="matrix(0.86809121,0.49640473,-0.95939588,0.28206302,1.515229,0.50507627)"
         style="opacity:0.66371681;fill:#535353;fill-opacity:1;stroke:none;filter:url(#filter10822)"
         d="m 1371.155,1172.6669 21.5763,0 0.4939,38.1566 -21.5763,0 z"
         id="path10850"
         inkscape:connector-curvature="0"
         sodipodi:nodetypes="ccccc" />
      <rect
         style="fill:#ececec;fill-opacity:1;stroke:none"
         id="rect10852"
         width="21.576231"
         height="39.025768"
         x="1371.6489"
         y="1171.7977"
         transform="matrix(0.86809121,0.49640473,-0.95939588,0.28206302,0,0)" />
      <path
         style="fill:#4b4b4b;fill-opacity:1;stroke:none"
         d="m 67.27455,1013.3592 -0.482526,0.1418 6.846905,3.9153 0.482527,-0.1419 -6.846906,-3.9152 z m 8.158016,4.6649 -0.482527,0.1419 4.516044,2.5824 2.094134,1.1975 0.482526,-0.1418 -2.094133,-1.1975 -4.516044,-2.5825 z m -7.452507,-2.8542 -0.482526,0.1418 10.343198,5.9146 0.482526,-0.1419 -10.343198,-5.9145 z m 10.488877,5.9979 -0.482527,0.1418 1.948455,1.1142 0.482526,-0.1419 -1.948454,-1.1141 z m -15.246325,-7.3111 -0.482526,0.1419 2.185183,1.2495 0.482526,-0.1419 -2.185183,-1.2495 z m 5.462957,3.1239 -0.482526,0.1418 6.846905,3.9153 0.364197,0.2083 0.801234,0.4582 2.094133,1.1975 0.482527,-0.1419 -2.094134,-1.1975 -0.801233,-0.4582 -0.364197,-0.2082 -6.846906,-3.9153 z m -6.287076,-2.1879 -0.482526,0.1419 2.330861,1.3328 11.508629,6.5811 0.364197,0.2082 0.482527,-0.1419 -0.364197,-0.2082 -11.508629,-6.5811 -2.330862,-1.3328 z m -2.881832,-0.2407 -0.482527,0.1419 5.772524,3.3009 1.529628,0.8747 5.462957,3.1239 3.259564,1.864 0.482527,-0.1419 -3.259565,-1.8639 -5.462956,-3.1239 -1.529628,-0.8747 -5.772524,-3.301 z m -1.625353,0.4779 -0.482526,0.1419 2.42191,1.3849 8.376534,4.79 4.297526,2.4575 0.928702,0.531 0.482527,-0.1418 -0.928703,-0.5311 -4.297526,-2.4575 -8.376533,-4.79 -2.421911,-1.3849 z m -1.625352,0.4779 -0.482527,0.1418 6.937955,3.9674 3.860489,2.2075 5.226229,2.9886 0.482526,-0.1419 -5.226228,-2.9885 -3.86049,-2.2076 -6.937954,-3.9673 z m -1.625353,0.4778 -0.482527,0.1419 11.963875,6.8413 0.482527,-0.1418 -11.963875,-6.8414 z m 12.910787,7.3828 -0.482526,0.1419 3.113885,1.7806 0.482527,-0.1418 -3.113886,-1.7807 z m -14.53614,-6.9049 -0.482526,0.1418 2.640429,1.5099 0.482526,-0.1419 -2.640429,-1.5098 z m 3.951539,2.2596 -0.482527,0.1418 6.846906,3.9154 4.297526,2.4574 0.482526,-0.1418 -4.297525,-2.4575 -6.846906,-3.9153 z m -5.576891,-1.7818 -0.482527,0.1419 2.640429,1.5099 9.323446,5.3314 0.482527,-0.1418 -9.323446,-5.3315 -2.640429,-1.5099 z m -1.625353,0.4779 -0.482527,0.1418 3.80586,2.1764 0.482527,-0.1419 -3.80586,-2.1763 z m 4.752772,2.7178 -0.482526,0.1418 9.177767,5.2482 1.165431,0.6664 0.482526,-0.1418 -1.165431,-0.6665 -9.177767,-5.2481 z m -6.378125,-2.24 -0.482526,0.1419 5.772524,3.3009 1.165431,0.6665 0.482526,-0.1419 -1.16543,-0.6665 -5.772525,-3.3009 z m 8.613262,4.9254 -0.482527,0.1418 7.411412,4.2381 0.482526,-0.1418 -7.411411,-4.2381 z m -9.783368,-4.1872 -0.482526,0.1419 9.177767,5.2481 1.165431,0.6665 0.482526,-0.1419 -1.165431,-0.6664 -9.177767,-5.2482 z m 11.290111,6.4561 -0.482527,0.1419 4.279316,2.447 0.482527,-0.1419 -4.279316,-2.447 z m -9.783368,-4.1872 -0.482527,0.1418 12.437331,7.1122 0.482527,-0.1419 -12.437331,-7.1121 z m -4.757448,-1.3132 -0.482527,0.1419 9.177767,5.2481 1.966665,1.1247 0.482526,-0.1419 -1.966664,-1.1246 -9.177767,-5.2482 z m 12.455541,7.1225 -0.482527,0.1419 3.113886,1.7806 0.482526,-0.1419 -3.113885,-1.7806 z m -14.53614,-6.9049 -0.482527,0.1418 2.640429,1.5099 0.482527,-0.1419 -2.640429,-1.5098 z m 3.587341,2.0513 -0.482526,0.1419 12.437331,7.1121 0.482527,-0.1419 -12.437332,-7.1121 z m -5.212694,-1.5735 -0.482526,0.1419 8.103385,4.6338 0.509876,0.2915 4.151847,2.3742 3.259565,1.8639 0.482526,-0.1418 -3.259564,-1.864 -4.151847,-2.3741 -0.509876,-0.2916 -8.103386,-4.6338 z m -1.625352,0.4778 -0.482527,0.1419 3.441663,1.9681 9.687643,5.5397 2.895367,1.6557 0.482526,-0.1419 -2.895367,-1.6556 -9.687643,-5.5398 -3.441662,-1.9681 z m -1.625353,0.4779 -0.482527,0.1419 2.786108,1.5932 6.482709,3.707 0.364197,0.2083 3.132095,1.791 3.259564,1.864 0.482527,-0.1419 -3.259564,-1.8639 -3.132095,-1.7911 -0.364198,-0.2083 -6.482708,-3.707 -2.786108,-1.5932 z m -1.534303,0.5299 -0.482527,0.1419 4.516044,2.5824 7.356782,4.2069 1.165431,0.6664 1.16543,0.6665 0.482527,-0.1419 -1.165431,-0.6665 -1.165431,-0.6664 -7.356781,-4.2069 -4.516044,-2.5824 z m -1.716402,0.4258 -0.482526,0.1419 2.42191,1.3849 3.71481,2.1243 3.496293,1.9993 0.482526,-0.1419 -3.496292,-1.9993 -3.71481,-2.1243 -2.421911,-1.3849 z m 12.910787,7.3829 -0.482526,0.1418 2.185182,1.2496 0.482527,-0.1419 -2.185183,-1.2495 z m -12.915463,-5.9783 -0.304753,0.09 10.343198,5.9146 0.304753,-0.09 -10.343198,-5.9146 z m 13.985169,7.9973 -0.304753,0.09 0.418826,0.2395 0.304754,-0.09 -0.418827,-0.2395 z"
         id="path10854"
         inkscape:connector-curvature="0" />
    </g>
  </g>
</svg>
