<?xml version="1.0" encoding="UTF-8" standalone="no"?>
<!-- Created with Inkscape (http://www.inkscape.org/) -->

<svg
   xmlns:dc="http://purl.org/dc/elements/1.1/"
   xmlns:cc="http://creativecommons.org/ns#"
   xmlns:rdf="http://www.w3.org/1999/02/22-rdf-syntax-ns#"
   xmlns:svg="http://www.w3.org/2000/svg"
   xmlns="http://www.w3.org/2000/svg"
   xmlns:sodipodi="http://sodipodi.sourceforge.net/DTD/sodipodi-0.dtd"
   xmlns:inkscape="http://www.inkscape.org/namespaces/inkscape"
   width="10"
   height="10"
   id="svg3803"
   version="1.1"
   inkscape:version="0.48.2 r9819"
   sodipodi:docname="snowflake.svg"
   inkscape:export-filename="C:\Users\Jake\Documents\FlashDevelop\Cold\lib\art\particles\snowflake.png"
   inkscape:export-xdpi="90"
   inkscape:export-ydpi="90">
  <defs
     id="defs3805">
    <filter
       inkscape:collect="always"
       id="filter4327"
       x="-0.17815028"
       width="1.3563006"
       y="-0.18416378"
       height="1.3683276">
      <feGaussianBlur
         inkscape:collect="always"
         stdDeviation="0.81188277"
         id="feGaussianBlur4329" />
    </filter>
  </defs>
  <sodipodi:namedview
     id="base"
     pagecolor="#ffffff"
     bordercolor="#666666"
     borderopacity="1.0"
     inkscape:pageopacity="0.0"
     inkscape:pageshadow="2"
     inkscape:zoom="22.4"
     inkscape:cx="-5.6413433"
     inkscape:cy="0.9278886"
     inkscape:document-units="px"
     inkscape:current-layer="layer1"
     showgrid="false"
     inkscape:window-width="1440"
     inkscape:window-height="838"
     inkscape:window-x="-8"
     inkscape:window-y="-8"
     inkscape:window-maximized="1" />
  <metadata
     id="metadata3808">
    <rdf:RDF>
      <cc:Work
         rdf:about="">
        <dc:format>image/svg+xml</dc:format>
        <dc:type
           rdf:resource="http://purl.org/dc/dcmitype/StillImage" />
        <dc:title></dc:title>
      </cc:Work>
    </rdf:RDF>
  </metadata>
  <g
     inkscape:label="Layer 1"
     inkscape:groupmode="layer"
     id="layer1"
     transform="translate(0,-1042.3622)">
    <path
       transform="matrix(0.74615205,0,0,0.77133859,0.1200322,1042.3864)"
       style="opacity:0.84070796;fill:#ffffff;fill-opacity:1;stroke:none;filter:url(#filter4327)"
       d="m 12.008929,6.4508929 c 0,1.3417213 0.918043,4.9268631 -0.230537,4.3675251 -2.3174413,-1.1285537 -5.0408561,0.691146 -6.6741519,0.691146 -1.5680973,0 -0.9976516,-2.1367163 -2.7809133,-2.1404702 C 0.87846936,9.3660523 -0.01392759,7.3842273 1.0714288,6.4508929 1.8144499,5.8119441 1.1533155,4.9676319 1.2789779,4.4840568 1.6301892,3.1325228 2.2763173,2.1647096 2.4503801,1.6512568 3.117689,-0.31718058 4.4197543,1.1607141 6.5401788,1.1607141 c 0.8433094,0 1.5858338,1.3071094 2.443529,1.392443 1.2120762,0.1205917 2.4751892,-0.8715148 3.0266972,0.062688 0.455949,0.7723335 -0.0015,2.8819671 -0.0015,3.8350475 z"
       id="path3813"
       inkscape:connector-curvature="0"
       sodipodi:nodetypes="sssssssssss" />
  </g>
</svg>
