<?xml version="1.0" encoding="UTF-8" standalone="no"?>
<!-- Created with Inkscape (http://www.inkscape.org/) -->

<svg
   xmlns:dc="http://purl.org/dc/elements/1.1/"
   xmlns:cc="http://creativecommons.org/ns#"
   xmlns:rdf="http://www.w3.org/1999/02/22-rdf-syntax-ns#"
   xmlns:svg="http://www.w3.org/2000/svg"
   xmlns="http://www.w3.org/2000/svg"
   xmlns:sodipodi="http://sodipodi.sourceforge.net/DTD/sodipodi-0.dtd"
   xmlns:inkscape="http://www.inkscape.org/namespaces/inkscape"
   width="800"
   height="400"
   id="svg11677"
   version="1.1"
   inkscape:version="0.48.2 r9819"
   sodipodi:docname="iceInOuthouse.svg"
   inkscape:export-filename="C:\Users\Jake\Documents\FlashDevelop\Cold\lib\art\decals\iceInOuthouse.png"
   inkscape:export-xdpi="90"
   inkscape:export-ydpi="90">
  <defs
     id="defs11679">
    <filter
       inkscape:collect="always"
       id="filter12214"
       x="-0.012332016"
       width="1.024664"
       y="-0.44571425"
       height="1.8914285">
      <feGaussianBlur
         inkscape:collect="always"
         stdDeviation="0.6565991"
         id="feGaussianBlur12216" />
    </filter>
  </defs>
  <sodipodi:namedview
     id="base"
     pagecolor="#ffffff"
     bordercolor="#666666"
     borderopacity="1.0"
     inkscape:pageopacity="0.0"
     inkscape:pageshadow="2"
     inkscape:zoom="0.7"
     inkscape:cx="607.58066"
     inkscape:cy="157.68197"
     inkscape:document-units="px"
     inkscape:current-layer="layer1"
     showgrid="false"
     inkscape:window-width="1440"
     inkscape:window-height="838"
     inkscape:window-x="-8"
     inkscape:window-y="-8"
     inkscape:window-maximized="1" />
  <metadata
     id="metadata11682">
    <rdf:RDF>
      <cc:Work
         rdf:about="">
        <dc:format>image/svg+xml</dc:format>
        <dc:type
           rdf:resource="http://purl.org/dc/dcmitype/StillImage" />
        <dc:title></dc:title>
      </cc:Work>
    </rdf:RDF>
  </metadata>
  <g
     inkscape:label="Layer 1"
     inkscape:groupmode="layer"
     id="layer1"
     transform="translate(0,-652.36218)">
    <path
       sodipodi:nodetypes="ccccc"
       inkscape:connector-curvature="0"
       id="path6770-3"
       d="M 2.9114142e-6,1053.7908 800,1053.7908 l 0,-400.00006 -799.9999970885858,0 z"
       style="fill:#3b2929;fill-opacity:1;stroke:none" />
    <path
       style="opacity:0.13274336;fill:#cccccc;fill-opacity:1;stroke:none"
       d="M 31.424107,690.22825 147.14286,783.072 c 0,0 1.31983,0.58094 3,1.3125 0,0 353.5526,198.19267 348.25,189.96875 C 414.91841,852.41158 617.14732,730.92468 617.14732,730.92468 z"
       id="rect12230"
       inkscape:connector-curvature="0"
       sodipodi:nodetypes="cccccc" />
    <rect
       style="opacity:0.13274336;fill:#191111;fill-opacity:1;stroke:none;stroke-width:1;stroke-linejoin:miter;stroke-miterlimit:4;stroke-opacity:1;stroke-dasharray:none;stroke-dashoffset:0;filter:url(#filter12214)"
       id="rect12204"
       width="127.78429"
       height="3.5355339"
       x="-6.5659914"
       y="33.819702"
       transform="translate(0,652.36218)"
       rx="3.6815572"
       ry="3.5355339" />
    <rect
       ry="3.5355339"
       rx="3.6815572"
       y="728.10321"
       x="-116.16754"
       height="3.5355339"
       width="127.78429"
       id="rect12218"
       style="opacity:0.13274336;fill:#191111;fill-opacity:1;stroke:none;filter:url(#filter12214)" />
    <rect
       style="opacity:0.13274336;fill:#191111;fill-opacity:1;stroke:none;filter:url(#filter12214)"
       id="rect12220"
       width="127.78429"
       height="3.5355339"
       x="-12.121828"
       y="1027.1084"
       rx="3.6815572"
       ry="3.5355339" />
    <rect
       ry="3.5355339"
       rx="3.6815572"
       y="707.90021"
       x="-80.812202"
       height="3.5355339"
       width="127.78429"
       id="rect12222"
       style="opacity:0.13274336;fill:#191111;fill-opacity:1;stroke:none;filter:url(#filter12214)" />
    <rect
       ry="3.5355339"
       rx="3.6815572"
       y="995.28857"
       x="793.47485"
       height="3.5355339"
       width="127.78429"
       id="rect12224"
       style="opacity:0.13274336;fill:#191111;fill-opacity:1;stroke:none;filter:url(#filter12214)" />
    <rect
       style="opacity:0.13274336;fill:#191111;fill-opacity:1;stroke:none;filter:url(#filter12214)"
       id="rect12226"
       width="127.78429"
       height="3.5355339"
       x="683.87329"
       y="1037.2098"
       rx="3.6815572"
       ry="3.5355339" />
    <rect
       style="opacity:0.13274336;fill:#191111;fill-opacity:1;stroke:none;filter:url(#filter12214)"
       id="rect12228"
       width="127.78429"
       height="3.5355339"
       x="719.22864"
       y="1017.0069"
       rx="3.6815572"
       ry="3.5355339" />
    <path
       sodipodi:nodetypes="cccscccc"
       inkscape:connector-curvature="0"
       id="path12343"
       d="M 248.99422,674.01609 145.41398,780.23251 c 0,0 -0.70566,1.25754 -1.59594,2.8593 0,0 -115.78511,62.79606 -146.9596721,26.3215 -77.6097529,-90.80419 -81.5317369,304.95229 -75.7376999,301.96509 129.42982,-71.314 149.835728,61.3779 132.622108,84.7913 33.850903,5.7462 95.932624,-38.0425 95.932624,-38.0425 z"
       style="opacity:0.13274336;fill:#cccccc;fill-opacity:1;stroke:none" />
    <path
       style="opacity:0.13274339;fill:#cccccc;fill-opacity:1;stroke:none"
       d="m 165.52613,1059.6059 147.46775,-16.2498 c 0,0 48.48664,63.7626 50.19165,63.0909 0,0 342.94424,-174.33946 333.3785,-176.40029 C 678.44199,922.91989 631.24687,827.47011 659.41361,820.31935 636.91751,794.38043 478.29682,714.4846 478.29682,714.4846 450.11778,881.18323 332.52587,980.5835 165.52613,1059.6059 z"
       id="path12345"
       inkscape:connector-curvature="0"
       sodipodi:nodetypes="ccccccc" />
    <path
       sodipodi:nodetypes="ccccccc"
       inkscape:connector-curvature="0"
       id="path12347"
       d="m 150.05307,778.90517 99.13913,110.37312 c 0,0 16.92245,79.35865 18.46188,80.35284 0,0 301.03716,174.30857 297.13771,165.33387 -5.58125,-79.6873 84.46726,-132.7965 93.37035,-126.7287 7.97064,-33.39721 -31.61966,-98.23699 -31.61966,-98.23699 z"
       style="opacity:0.13274336;fill:#cccccc;fill-opacity:1;stroke:none" />
    <path
       style="opacity:0.13274336;fill:#cccccc;fill-opacity:1;stroke:none"
       d="M 471.85136,559.73038 368.27112,665.9468 c 0,0 -0.70566,1.25754 -1.59594,2.8593 0,0 -231.39473,332.7706 -222.69737,328.28659 20.0205,64.00801 126.31652,90.46741 132.62211,84.79131 33.8509,5.7462 31.64691,-146.61393 31.64691,-146.61393 z"
       id="path12351"
       inkscape:connector-curvature="0"
       sodipodi:nodetypes="ccccccc" />
    <path
       sodipodi:nodetypes="ccccccc"
       inkscape:connector-curvature="0"
       id="path12353"
       d="m 388.38327,945.32019 147.46775,-16.2498 c 0,0 1.34378,-0.5231 3.04879,-1.1948 0,0 390.0871,-110.05376 380.52136,-112.11459 C 774.15627,788.63418 842.67544,673.1844 870.84218,666.03364 848.34608,640.09472 772.58253,634.4846 772.58253,634.4846 z"
       style="opacity:0.13274336;fill:#cccccc;fill-opacity:1;stroke:none" />
    <path
       style="opacity:0.13274339;fill:#cccccc;fill-opacity:1;stroke:none"
       d="m 448.6245,546.04803 -93.71802,178.94455 c 0,0 342.35619,348.94712 338.45674,339.97242 112.05414,15.4455 210.27573,-151.40299 187.65606,-171.01441 7.97064,-33.39721 -31.61966,-98.23699 -31.61966,-98.23699 z"
       id="path12355"
       inkscape:connector-curvature="0"
       sodipodi:nodetypes="cccccc" />
  </g>
</svg>
