<?xml version="1.0" encoding="UTF-8" standalone="no"?>
<!-- Created with Inkscape (http://www.inkscape.org/) -->

<svg
   xmlns:dc="http://purl.org/dc/elements/1.1/"
   xmlns:cc="http://creativecommons.org/ns#"
   xmlns:rdf="http://www.w3.org/1999/02/22-rdf-syntax-ns#"
   xmlns:svg="http://www.w3.org/2000/svg"
   xmlns="http://www.w3.org/2000/svg"
   xmlns:sodipodi="http://sodipodi.sourceforge.net/DTD/sodipodi-0.dtd"
   xmlns:inkscape="http://www.inkscape.org/namespaces/inkscape"
   width="800"
   height="400"
   id="svg12326"
   version="1.1"
   inkscape:version="0.48.2 r9819"
   sodipodi:docname="New document 36">
  <defs
     id="defs12328" />
  <sodipodi:namedview
     id="base"
     pagecolor="#ffffff"
     bordercolor="#666666"
     borderopacity="1.0"
     inkscape:pageopacity="0.0"
     inkscape:pageshadow="2"
     inkscape:zoom="0.98994949"
     inkscape:cx="597.96548"
     inkscape:cy="102.30236"
     inkscape:document-units="px"
     inkscape:current-layer="layer1"
     showgrid="false"
     inkscape:window-width="1440"
     inkscape:window-height="838"
     inkscape:window-x="-8"
     inkscape:window-y="-8"
     inkscape:window-maximized="1" />
  <metadata
     id="metadata12331">
    <rdf:RDF>
      <cc:Work
         rdf:about="">
        <dc:format>image/svg+xml</dc:format>
        <dc:type
           rdf:resource="http://purl.org/dc/dcmitype/StillImage" />
        <dc:title></dc:title>
      </cc:Work>
    </rdf:RDF>
  </metadata>
  <g
     inkscape:label="Layer 1"
     inkscape:groupmode="layer"
     id="layer1"
     transform="translate(0,-652.36218)">
    <path
       style="fill:#3b2929;fill-opacity:1;stroke:none"
       d="m 0,652.23923 0,399.99997 265.5,0 C 186.50895,1035.1335 122.39687,1002.8467 79.879464,957.86423 -15.800359,856.63723 55.720084,732.29908 239.59821,676.62762 c 33.98183,-10.28843 65.12753,-20.24661 100.93304,-24.38839 z m 492.96875,0 c 103.23478,11.98218 171.50033,31.65663 224.24554,87.45982 95.67982,101.227 42.44509,240.99372 -141.43304,296.66515 -15.13164,4.5813 -24.54243,12.5322 -40.15625,15.875 l 264.375,0 0,-399.99997 z"
       id="path6770"
       inkscape:connector-curvature="0"
       sodipodi:nodetypes="cccsscccsscccc" />
    <path
       sodipodi:type="arc"
       style="opacity:0.71681417;fill:#000000;fill-opacity:1;stroke:#0b0808;stroke-width:0.89664221;stroke-opacity:1"
       id="path6772"
       sodipodi:cx="583.99445"
       sodipodi:cy="400.12628"
       sodipodi:rx="17.425131"
       sodipodi:ry="8.9651041"
       d="m 601.41958,400.12628 a 17.425131,8.9651041 0 1 1 -34.85027,0 17.425131,8.9651041 0 1 1 34.85027,0 z"
       transform="matrix(19.106933,-5.7848691,19.32422,20.444569,-18490.471,-3946.9817)" />
  </g>
</svg>
